<svg width="1177" height="1111" viewBox="0 0 1177 1111" fill="none" xmlns="http://www.w3.org/2000/svg">
<mask id="path-1-inside-1" fill="white">
<path d="M746.069 189.651L756.852 183.837L769.597 184.18L774.903 190.932L795.269 196.572L801.601 196.74L814.777 201.014L819.657 211.525L828.383 213.237L835.572 221.523H853.112L854.908 248.277L854.443 251.505L858.029 252.395H864.345L875.929 259.252L889.736 252.765V245.224L900.23 239.093L921.217 232.932L926.915 208.628H938.51V206.193L947.118 199.739L959.79 205.68H962.129V192.24L948.557 186.061H936.138L922.524 176.648L884.119 151.591L871.604 146.364L875.183 130.868L867.665 128.339V118.395L858.243 111.809L849.183 114.57L839.788 111.707H830.368L823.511 107.221V93.7961L821.112 85.7633L815.568 83.0113H808.138L805.572 79.9127H801.498L795.338 73.2483H785.521L790.208 84.3888L781.027 79.123L777.302 82.4446V88.7293H771.297L764.796 83.5599L759.381 93.8082L761.935 106.757L758.956 114.679L736.879 110.221L727.671 114.814L717.992 100.78L701.405 86.0436L686.84 85.0519L673.582 88.6298L662.91 98.3144L663.834 106.667L669.996 110.169L672.049 106.667L673.078 93.6454L681.806 91.1949L691.56 88.886L695.411 101.193L701.574 109.398L710.815 113.497L710.556 119.655L703.883 121.192C703.883 121.192 698.493 122.476 697.977 123.245C697.464 124.014 692.33 124.014 692.33 124.014L688.992 118.883L682.316 118.627L676.416 117.859L671.792 110.938L672.565 121.961L670.769 126.576L666.662 129.653L666.402 138.626L674.361 142.216L684.371 145.749L685.141 150.677L680.52 154.777L675.9 157.209L676.669 161.444L688.992 162.469L693.359 167.864L691.56 178.878L692.33 192.21L694.129 196.053L698.749 205.542L714.066 203.748L713.809 194.691L735.46 186.23L746.069 189.651Z"/>
</mask>
<path d="M746.069 189.651L756.852 183.837L769.597 184.18L774.903 190.932L795.269 196.572L801.601 196.74L814.777 201.014L819.657 211.525L828.383 213.237L835.572 221.523H853.112L854.908 248.277L854.443 251.505L858.029 252.395H864.345L875.929 259.252L889.736 252.765V245.224L900.23 239.093L921.217 232.932L926.915 208.628H938.51V206.193L947.118 199.739L959.79 205.68H962.129V192.24L948.557 186.061H936.138L922.524 176.648L884.119 151.591L871.604 146.364L875.183 130.868L867.665 128.339V118.395L858.243 111.809L849.183 114.57L839.788 111.707H830.368L823.511 107.221V93.7961L821.112 85.7633L815.568 83.0113H808.138L805.572 79.9127H801.498L795.338 73.2483H785.521L790.208 84.3888L781.027 79.123L777.302 82.4446V88.7293H771.297L764.796 83.5599L759.381 93.8082L761.935 106.757L758.956 114.679L736.879 110.221L727.671 114.814L717.992 100.78L701.405 86.0436L686.84 85.0519L673.582 88.6298L662.91 98.3144L663.834 106.667L669.996 110.169L672.049 106.667L673.078 93.6454L681.806 91.1949L691.56 88.886L695.411 101.193L701.574 109.398L710.815 113.497L710.556 119.655L703.883 121.192C703.883 121.192 698.493 122.476 697.977 123.245C697.464 124.014 692.33 124.014 692.33 124.014L688.992 118.883L682.316 118.627L676.416 117.859L671.792 110.938L672.565 121.961L670.769 126.576L666.662 129.653L666.402 138.626L674.361 142.216L684.371 145.749L685.141 150.677L680.52 154.777L675.9 157.209L676.669 161.444L688.992 162.469L693.359 167.864L691.56 178.878L692.33 192.21L694.129 196.053L698.749 205.542L714.066 203.748L713.809 194.691L735.46 186.23L746.069 189.651Z" stroke="white" stroke-width="2" mask="url(#path-1-inside-1)"/>
<path d="M860.462 358.275L865.03 354.51L865.39 354.213L865.119 353.833L862.554 350.243L862.458 350.109L862.301 350.058L852.101 346.747L847.755 343.734L847.629 317.321L847.629 317.17L847.544 317.044L842.198 309.106L846.664 301.298L846.788 301.082L846.689 300.853L842.158 290.294L845.872 282.508L845.961 282.321L845.893 282.127L843.642 275.713L851.794 271.802L852.035 271.686L852.073 271.422L854.571 254.164L857.542 254.902L857.6 254.917L857.66 254.917L863.651 254.946L875.57 262.003L875.798 262.138L876.037 262.025L892.009 254.526L892.296 254.391V254.073V246.685L901.138 241.49L923.095 235.042L923.374 234.96L923.441 234.677L928.949 211.181H940.573H941.073V210.681V207.468L947.43 202.704L959.13 208.183L959.231 208.23H959.343H969.003L975.579 211.138L975.676 211.181H975.782H987.301L995.624 217.411L995.876 217.599L996.155 217.454L1013.13 208.61L1018.8 215.048L1018.95 215.217H1019.18H1023.94H1024.28L1024.4 214.897L1029.36 202.08L1041.65 203.614L1042.22 203.685V203.118V192.194L1052.12 181.883H1062.03L1064.94 196.5L1064.98 196.695L1065.14 196.81L1068.43 199.153V220.793L1048.75 234.362L1048.35 234.641L1048.62 235.051L1058.25 249.481L1055.4 260.51L1043.08 270.238L1042.78 270.473L1042.93 270.823L1046.07 278.358L1040.21 280.934L1025.05 280.554L1024.81 280.548L1024.66 280.724L1018.37 287.904L1018 288.326L1018.46 288.645L1025.32 293.377L1025.92 304.158L1017.3 306.986L1017.17 307.03L1017.07 307.139L1007.06 319.061L1006.94 319.209L1006.95 319.402L1007.58 335.479L1000.09 338.976L988.341 335.314L988.151 335.255L987.972 335.342L975.909 341.241L975.666 341.36L975.633 341.629L974.533 350.535L954.581 349.908L954.367 349.901L954.214 350.051L944.457 359.667L944.315 359.807L944.308 360.006L943.68 378.992L899.052 391.183L864.007 390.543L853.761 388.048L848.927 378.511L867.829 365.173L868.04 365.023V364.764V362.841V362.549L867.786 362.405L860.462 358.275Z" stroke="white"/>
<path d="M1040.43 101.424L1040.51 101.392L1040.57 101.338L1054.4 88.8296L1058.18 93.568L1049.37 102.964L1049.14 103.21L1049.28 103.516L1052.66 110.81L1052.69 110.88L1052.74 110.938L1059.49 118.317L1059.69 118.536L1059.98 118.464L1074.27 114.892L1074.44 114.849L1074.55 114.708L1078.84 109.006L1084.4 114.699L1084.46 114.765L1084.55 114.804L1101.38 122.609L1093 124.106L1092.84 124.133L1092.73 124.241L1081.8 134.943L1069.29 132.221L1069.19 132.198L1069.08 132.221L1055.71 135.133L1055.7 135.136L1055.69 135.139L1045.5 137.971L1041.27 138.624L1045.07 131.008L1049.29 125.561L1049.64 125.111L1049.15 124.824L1038.96 118.874L1038.76 118.76L1038.55 118.83L1029.16 121.898L1029.03 121.942L1028.93 122.05L1022.65 129.44L1015.83 135.611L1004.77 138.261L1004.21 138.397L1004.43 138.936L1006.68 144.447L999.711 145.173L999.084 145.239L999.291 145.835L1001.69 152.742H978.115H977.894L977.745 152.906L971.824 159.41L971.59 159.667L971.749 159.976L976.469 169.124L976.609 169.395H976.914H991.024L991.982 181.05L992.005 181.327L992.252 181.454L996.391 183.583L999.816 191.176L993.166 196.978L993.013 197.112L992.996 197.315L991.904 210.815L988.449 208.231L988.316 208.131H988.15H976.322L969.743 205.223L969.646 205.18H969.541H964.693V190.92V190.598L964.4 190.465L949.216 183.553L949.118 183.508H949.009H936.945L923.963 174.536L923.963 174.536L923.952 174.529L885.445 149.402L885.407 149.377L885.365 149.36L874.578 144.842L878.093 129.63L878.195 129.188L877.765 129.044L870.22 126.506V117.328V117.067L870.006 116.918L858.891 109.148L858.691 109.008L858.459 109.079L849.185 111.901L840.388 109.224L840.318 109.202L840.245 109.202L831.133 109.158L826.066 105.845V93.6484V93.5765L826.046 93.5075L823.308 84.1816L823.247 83.9716L823.051 83.8744L816.272 80.5136L816.167 80.4616H816.05H809.34L806.922 77.5467L806.772 77.366H806.537H802.615L796.604 70.8593L796.456 70.6986H796.237H782.432H781.68L781.971 71.3924L784.926 78.4168L781.015 76.1724L780.703 75.9929L780.433 76.2329L774.917 81.1551L774.749 81.3043V81.5282V86.1795H772.189L764.448 80.0217L763.976 79.6464L763.695 80.1795L756.787 93.2581L756.704 93.4146L756.738 93.5883L759.291 106.537L757.336 111.744L738.269 107.897V15.4401L792.49 0.537999L845.103 31.3588L855.714 43.9765L855.752 44.0227L855.801 44.0583L866.524 51.9042L866.656 52.0007H866.819H897.825L918.253 55.6161L918.514 55.6624L918.699 55.4721L926.492 47.4465L934.404 51.6517L941.697 61.8973L941.709 61.9148L941.723 61.9313L946.419 67.4533L946.582 67.6451L946.833 67.6283L953.422 67.1877V81.0796L947.268 84.4102L946.631 84.7548L947.179 85.2282L951.383 88.8604L951.405 88.879L951.429 88.8951L959.688 94.5264L961.714 109.81L961.744 110.038L961.937 110.163L969.258 114.94L969.383 115.022H969.532H994.501L999.505 126.774L999.635 127.079H999.965H1009.61H1009.98L1010.09 126.728L1012.74 118.247L1025.58 107.984L1040.43 101.424Z" stroke="white"/>
<path d="M116.651 362.868L116.798 363.079L117.055 363.082L129.793 363.24L137.042 368.097L137.166 368.18L137.314 368.182L141.527 368.236L141.784 368.239L141.937 368.032L148.999 358.434L159.903 355.156L163.611 354.787L171.27 354.889L171.405 354.891L171.523 354.824L177.29 351.553L189.496 354.053L189.595 354.073L189.694 354.053L214.991 348.99L215.098 348.968L215.187 348.904L219.096 346.066L223.999 350.98L219.992 353.727L219.553 354.027L219.88 354.446L224.268 360.074L224.452 360.31L224.747 360.259L233.111 358.818L238.651 361.009L238.812 361.073L238.978 361.023L245.745 359.01L253.213 363.257L253.653 363.507L253.898 363.065L256.581 358.224L261.318 357.362L261.369 357.352L261.417 357.333L275.567 351.571L288.897 393.153L281.129 406.522L281.092 406.585L281.075 406.657L278.009 419.531L277.996 419.585L277.995 419.64L277.748 438.506L276.361 438.488L263.133 427.484L258.668 421.715L256.817 414.708L256.784 414.583L256.694 414.49L248.61 406.063L242.577 390.261L242.53 390.139L242.43 390.055L238.504 386.776L237.697 386.102L237.683 387.153L237.572 395.541L237.57 395.659L237.621 395.765L243.084 407.129L246.465 415.171L246.495 415.241L246.543 415.298L260.892 432.484L267.471 444.041L266.452 465.285L266.445 465.42L266.508 465.54L271.198 474.529L271.262 474.651L271.38 474.723L274.955 476.918L276.287 485.422L276.306 485.544L276.38 485.643L293.213 508.258L299.946 518.294L297.182 521.284L292.67 523.954L292.428 524.097L292.424 524.378L292.334 531.157L292.333 531.243L292.36 531.325L297.603 546.709L297.665 546.893L297.835 546.986L305.199 551.028L309.304 559.71L309.384 559.88L309.555 559.955L313.745 561.79L313.705 564.842L66.0271 571.541L58.3588 395.6C58.3588 395.599 58.3587 395.599 58.3587 395.598C58.3545 395.48 58.3384 395.359 58.3087 395.243L55.8526 384.613L61.3436 368.75L61.344 368.748C61.4895 368.325 61.4867 367.864 61.3268 367.442C61.3267 367.442 61.3266 367.441 61.3265 367.441L57.5673 357.416L56.2885 348.769L57.1542 345.179L58.3822 345.726L61.9051 354.781L62.072 355.21L62.5133 355.079L67.988 353.455L68.0243 353.444L68.0586 353.428L75.8803 349.748L83.8653 351.736L83.9216 351.75L83.9795 351.751L97.3622 351.929L99.8949 355.395L100.042 355.597L100.292 355.6L111.685 355.751L116.651 362.868Z" fill="white" fill-opacity="0.25" stroke="white"/>
<path d="M383.485 328.714H378.492C377.689 328.714 377.039 328.066 377.039 327.261V325.118C377.039 324.782 377.154 324.443 377.377 324.18C377.378 324.18 377.379 324.179 377.379 324.178L378.647 322.661L372.252 303.685L344.596 322.738C344.595 322.738 344.595 322.738 344.595 322.738C344.491 322.81 344.375 322.871 344.245 322.915C344.244 322.915 344.243 322.916 344.242 322.916L327.779 328.638L327.768 328.642L327.768 328.641C327.622 328.689 327.467 328.717 327.301 328.717C327.209 328.717 327.101 328.709 326.992 328.684L320.293 327.254C320.134 327.223 319.997 327.164 319.878 327.097C319.877 327.097 319.877 327.096 319.876 327.096L307.993 320.446V344.424C307.993 344.576 307.971 344.729 307.919 344.882C307.919 344.883 307.918 344.884 307.918 344.885L307.347 346.614L307.449 346.79L307.701 347.225L307.265 347.474L307.021 347.614L298.622 373.097L292.525 394.512L310.738 399.389L323.259 394.3L334.148 383.442L334.149 383.442M383.485 328.714L335.178 383.518C334.924 383.518 334.683 383.615 334.502 383.796L334.149 383.442M383.485 328.714V329.021L381.119 333.155L337.687 344.087C337.686 344.087 337.686 344.087 337.685 344.087C337.294 344.184 336.966 344.438 336.773 344.783C336.581 345.124 336.53 345.531 336.645 345.917L336.646 345.919L338.793 353.064C338.862 353.305 338.994 353.51 339.154 353.674L339.154 353.674L339.158 353.679L345.222 359.729C345.234 359.744 345.244 359.755 345.25 359.761L345.25 359.761L345.267 359.782L345.297 359.809L356.18 369.645L347.284 383.018M383.485 328.714L347.284 383.018M334.149 383.442C334.426 383.165 334.796 383.018 335.178 383.018H347.284M334.149 383.442L347.284 383.018" stroke="white"/>
<path d="M309.473 317.942L311.572 316.719L311.574 316.717C312.108 316.403 312.391 315.783 312.262 315.168C312.262 315.168 312.262 315.168 312.262 315.168L310.242 305.417L318.345 293.955L328.904 285.867C328.904 285.867 328.904 285.867 328.905 285.867C329.444 285.455 329.632 284.724 329.341 284.104C329.341 284.103 329.341 284.103 329.34 284.102L325.048 274.809C325.048 274.808 325.048 274.808 325.048 274.807C324.981 274.663 324.889 274.521 324.763 274.397L321.643 271.182C321.643 271.182 321.642 271.182 321.642 271.181C321.302 270.828 320.813 270.688 320.351 270.764L320.351 270.764L320.344 270.765L311.556 272.329L313.582 255.583L313.603 255.408L313.509 255.258L311.173 251.527L310.307 246.692L321.452 237.621L328.092 233.374C328.092 233.374 328.092 233.374 328.092 233.374C328.617 233.038 328.868 232.405 328.722 231.801L328.721 231.798L326.692 223.693L328.137 220.326L346.226 225.68L346.227 225.68C346.613 225.793 347.035 225.745 347.384 225.537C347.385 225.536 347.385 225.536 347.386 225.536L362.445 216.65L377.127 224.148L377.129 224.149C377.499 224.335 377.93 224.359 378.32 224.208L378.322 224.207L389.743 219.715L400.423 221.779C400.423 221.779 400.423 221.779 400.423 221.779C400.423 221.779 400.423 221.779 400.423 221.779C400.731 221.839 401.044 221.797 401.324 221.664L401.324 221.664L416.068 214.656H431.492C431.626 214.656 431.759 214.639 431.895 214.596L447.359 210.231L448.879 212.408L447.862 216.284L438.873 223.193H434.639C434.282 223.193 433.931 223.32 433.656 223.571L433.656 223.572L423.705 232.69L423.704 232.691C423.216 233.142 423.088 233.864 423.411 234.454C423.411 234.455 423.411 234.455 423.411 234.456L428.707 244.214L426.723 247.046C426.722 247.047 426.721 247.049 426.72 247.05C426.625 247.182 426.553 247.329 426.51 247.494L423.288 258.746L423.288 258.747C423.25 258.877 423.232 259.011 423.232 259.146V272.792L417.665 280.312L374.354 298.75C374.271 298.785 374.182 298.831 374.096 298.891C374.095 298.892 374.094 298.892 374.093 298.893L343.113 320.234L327.211 325.755L321.113 324.458L309.473 317.942Z" stroke="white"/>
<path d="M117.149 126.124V123.929V123.416L116.636 123.429L99.0074 123.894V123.321L107.301 116.736L115.509 110.673C115.51 110.673 115.51 110.672 115.511 110.672C115.864 110.414 116.082 110.01 116.101 109.575C116.123 109.139 115.948 108.716 115.622 108.423L115.622 108.423L112.884 105.962L115.938 100.169L115.94 100.166C116.131 99.7973 116.16 99.3575 116.004 98.9607C115.852 98.5719 115.539 98.262 115.132 98.1225L107.604 95.4565L118.76 90.8347C118.816 90.8165 118.86 90.7945 118.89 90.7777L126.274 87.0919L135.776 89.4675L135.776 89.4677L135.789 89.4705C136.061 89.5308 136.354 89.5253 136.641 89.4172L136.642 89.4169C136.817 89.3509 137.617 89.0525 138.848 88.5937C139.723 88.2673 140.817 87.8597 142.058 87.3967L143.359 88.8455V93.8986V93.9915L143.393 94.0783L148.134 106.389V112.949H140.992H140.896L140.807 112.984L133.648 115.845L133.445 115.926L133.367 116.129L131.069 122.095L117.149 126.124ZM98.4269 124.493L98.4316 124.513C98.4571 124.619 98.478 124.714 98.4886 124.794C98.4919 124.818 98.4937 124.838 98.4945 124.853C98.4888 124.86 98.481 124.87 98.4704 124.882C98.4286 124.929 98.3719 124.983 98.2931 125.055C98.2848 125.062 98.2762 125.07 98.2673 125.078C98.2001 125.139 98.1182 125.214 98.0452 125.29C97.9641 125.374 97.865 125.488 97.7952 125.627C97.7169 125.783 97.6618 125.929 97.6173 126.056C97.6019 126.1 97.5885 126.139 97.5761 126.176C97.55 126.252 97.5284 126.315 97.5018 126.382C97.4361 126.547 97.3646 126.667 97.2131 126.785C97.1763 126.812 97.0722 126.87 96.8983 126.941C96.7306 127.011 96.5287 127.081 96.3241 127.137C96.1175 127.194 95.9222 127.233 95.7647 127.246C95.6761 127.254 95.6203 127.252 95.5894 127.249C95.5623 127.211 95.5275 127.152 95.4872 127.074C95.3991 126.901 95.3058 126.67 95.225 126.424C95.1442 126.178 95.0814 125.934 95.0486 125.737C95.0327 125.641 95.0255 125.566 95.0245 125.512C95.028 125.51 95.0318 125.508 95.036 125.506C95.1011 125.473 95.201 125.439 95.3466 125.403C95.4385 125.38 95.5071 125.365 95.5811 125.349C95.6475 125.335 95.7183 125.319 95.8142 125.296C95.9727 125.259 96.1603 125.208 96.3267 125.128C96.5824 125.007 96.8997 124.82 97.1911 124.613C97.3625 124.491 97.5417 124.35 97.6982 124.199L98.3201 124.45L98.4269 124.493ZM94.9929 125.533C94.9929 125.533 94.9932 125.533 94.9938 125.532C94.9933 125.533 94.9929 125.533 94.9929 125.533ZM95.6171 127.285C95.6186 127.286 95.6194 127.287 95.6194 127.287C95.6194 127.287 95.6186 127.287 95.6171 127.285Z" stroke="white"/>
<mask id="path-8-inside-2" fill="white">
<path d="M326.152 586.477L314.367 568.229L65.6753 574.954L67.5525 618.003C67.5887 618.777 66.9881 619.441 66.1944 619.51L47.6788 621.071L46.4354 714.647C46.4293 715.325 45.9404 715.91 45.2613 716.049L24.5426 720.359L24.4551 726.945C24.452 727.322 24.2981 727.678 24.0295 727.946L12.392 739.475L12.2079 753.416C12.1989 753.943 11.9001 754.423 11.4232 754.673L7.69899 756.629L7.58732 764.972C7.58128 765.412 7.37002 765.828 7.01691 766.1L0.0663966 771.381L0 776.496L5.45357 776.568C6.19601 776.577 6.82074 777.123 6.91128 777.846L9.12651 795.603L14.1757 807.69L20.2117 811.888C20.5316 812.112 20.7489 812.449 20.8153 812.823L24.449 833.377L37.8913 852.176C38.0935 852.463 38.1901 852.809 38.1509 853.156L36.0292 873.107L48.0259 875.365L53.0539 872.769C53.413 872.586 53.8295 872.552 54.2158 872.676C54.587 872.793 54.8919 873.047 55.0699 873.384L56.3828 870.177C56.4492 870.011 56.5457 869.861 56.6725 869.731L66.0042 859.923L72.1006 841.428L74.6901 834.166C74.9014 833.576 75.4718 833.184 76.1146 833.19L84.046 833.295C84.5319 833.301 84.9816 833.539 85.2592 833.931L95.0316 847.953L122.007 847.848L126.117 844.81C126.473 844.547 126.932 844.457 127.367 844.556L138.241 847.121C138.745 847.242 139.152 847.61 139.309 848.092L141.382 854.428L153.24 855.001L156.379 848.65C156.581 848.24 156.971 847.944 157.432 847.854L168.176 845.819L168.246 840.704C168.252 840.113 168.629 839.583 169.197 839.372L179.165 835.628C179.512 835.499 179.895 835.499 180.243 835.634L198.269 842.564L211.464 843.185L220.669 826.682C220.763 826.51 220.889 826.366 221.043 826.245L232.023 817.624L232.186 805.227L227.113 798.285C226.781 797.824 226.744 797.221 227.025 796.733C227.303 796.242 227.849 795.952 228.419 795.989L237.44 796.549L240.012 792.489C240.232 792.139 240.591 791.898 241.004 791.826L248.462 790.473C248.869 790.397 249.295 790.494 249.627 790.738C249.962 790.982 250.173 791.35 250.216 791.754L253.674 824.59L262.988 831.601C263.148 831.728 263.287 831.882 263.383 832.053L272.875 849.005L276.306 844.122L276.463 831.972C276.472 831.414 276.81 830.905 277.326 830.673L287.947 825.883L288.258 802.593C288.261 802.207 288.424 801.839 288.707 801.571L295.996 794.638L299.995 783.868C300.128 783.513 300.396 783.22 300.746 783.055L308.228 779.525L316.078 761.512L316.543 726.457C316.543 726.294 316.573 726.131 316.63 725.981L325.259 702.687L322.195 674.896C322.153 674.492 322.28 674.091 322.552 673.787C322.823 673.479 323.216 673.301 323.629 673.289L334.615 672.97L345.262 666.079C345.513 665.917 345.809 665.835 346.104 665.838L351.814 665.911L355.158 650.062L348.848 645.534L341.598 643.828L331.515 631.425L331.681 618.841L323.87 609.699L324.061 595.493L319.506 589.947L321.531 586.42L326.152 586.477Z"/>
</mask>
<path d="M326.152 586.477L314.367 568.229L65.6753 574.954L67.5525 618.003C67.5887 618.777 66.9881 619.441 66.1944 619.51L47.6788 621.071L46.4354 714.647C46.4293 715.325 45.9404 715.91 45.2613 716.049L24.5426 720.359L24.4551 726.945C24.452 727.322 24.2981 727.678 24.0295 727.946L12.392 739.475L12.2079 753.416C12.1989 753.943 11.9001 754.423 11.4232 754.673L7.69899 756.629L7.58732 764.972C7.58128 765.412 7.37002 765.828 7.01691 766.1L0.0663966 771.381L0 776.496L5.45357 776.568C6.19601 776.577 6.82074 777.123 6.91128 777.846L9.12651 795.603L14.1757 807.69L20.2117 811.888C20.5316 812.112 20.7489 812.449 20.8153 812.823L24.449 833.377L37.8913 852.176C38.0935 852.463 38.1901 852.809 38.1509 853.156L36.0292 873.107L48.0259 875.365L53.0539 872.769C53.413 872.586 53.8295 872.552 54.2158 872.676C54.587 872.793 54.8919 873.047 55.0699 873.384L56.3828 870.177C56.4492 870.011 56.5457 869.861 56.6725 869.731L66.0042 859.923L72.1006 841.428L74.6901 834.166C74.9014 833.576 75.4718 833.184 76.1146 833.19L84.046 833.295C84.5319 833.301 84.9816 833.539 85.2592 833.931L95.0316 847.953L122.007 847.848L126.117 844.81C126.473 844.547 126.932 844.457 127.367 844.556L138.241 847.121C138.745 847.242 139.152 847.61 139.309 848.092L141.382 854.428L153.24 855.001L156.379 848.65C156.581 848.24 156.971 847.944 157.432 847.854L168.176 845.819L168.246 840.704C168.252 840.113 168.629 839.583 169.197 839.372L179.165 835.628C179.512 835.499 179.895 835.499 180.243 835.634L198.269 842.564L211.464 843.185L220.669 826.682C220.763 826.51 220.889 826.366 221.043 826.245L232.023 817.624L232.186 805.227L227.113 798.285C226.781 797.824 226.744 797.221 227.025 796.733C227.303 796.242 227.849 795.952 228.419 795.989L237.44 796.549L240.012 792.489C240.232 792.139 240.591 791.898 241.004 791.826L248.462 790.473C248.869 790.397 249.295 790.494 249.627 790.738C249.962 790.982 250.173 791.35 250.216 791.754L253.674 824.59L262.988 831.601C263.148 831.728 263.287 831.882 263.383 832.053L272.875 849.005L276.306 844.122L276.463 831.972C276.472 831.414 276.81 830.905 277.326 830.673L287.947 825.883L288.258 802.593C288.261 802.207 288.424 801.839 288.707 801.571L295.996 794.638L299.995 783.868C300.128 783.513 300.396 783.22 300.746 783.055L308.228 779.525L316.078 761.512L316.543 726.457C316.543 726.294 316.573 726.131 316.63 725.981L325.259 702.687L322.195 674.896C322.153 674.492 322.28 674.091 322.552 673.787C322.823 673.479 323.216 673.301 323.629 673.289L334.615 672.97L345.262 666.079C345.513 665.917 345.809 665.835 346.104 665.838L351.814 665.911L355.158 650.062L348.848 645.534L341.598 643.828L331.515 631.425L331.681 618.841L323.87 609.699L324.061 595.493L319.506 589.947L321.531 586.42L326.152 586.477Z" stroke="white" stroke-width="2" mask="url(#path-8-inside-2)"/>
<path d="M258.179 255.534L258.235 255.538L258.29 255.529L271.536 253.382L271.623 253.368L271.7 253.325L279.908 248.735V251.507L268.728 257.089L268.3 257.303L268.495 257.74L271.268 263.975L268.627 269.907H239.189L236.681 264.904L246.983 259.588L247.254 259.448V259.143V254.85L258.179 255.534Z" stroke="white"/>
<path d="M460.676 806.087L469.594 807.692L461.451 817.863L449.844 815.086L449.842 815.085C449.028 814.894 448.167 815.222 447.705 815.923L447.705 815.924L444.562 820.69L443.388 821.433L440.674 807.785L451.335 788.228L464.964 777.218L473.425 792.074L465.265 798.236L465.201 798.285L465.155 798.351L460.353 805.311L459.912 805.949L460.676 806.087Z" stroke="white"/>
<path d="M459.569 821.43L450.273 819.211L447.672 823.156C447.671 823.158 447.67 823.159 447.669 823.161C447.515 823.4 447.307 823.597 447.074 823.744L459.569 821.43ZM459.569 821.43L457.289 827.374L457.288 827.376C457.152 827.737 457.122 828.132 457.216 828.515L459.569 821.43ZM573.956 889.004L509.401 959.458L484.195 959.127L484.192 959.127C483.719 959.123 483.245 959.285 482.878 959.598C482.877 959.598 482.877 959.599 482.876 959.599L466.283 973.514L452.702 975.142L446.823 973.546L446.822 973.546C446.035 973.334 445.194 973.612 444.7 974.263L440.936 979.216L431.242 979.091L421.533 973.41L421.531 973.409C420.908 973.048 420.144 973.049 419.524 973.396L419.521 973.398L414.849 976.053L397.337 978.667C397.336 978.667 397.336 978.667 397.335 978.667C396.635 978.768 396.046 979.231 395.783 979.878L395.782 979.879L390.471 993.077L360.161 992.678L352.633 981.789L352.628 981.781L352.622 981.773C352.563 981.696 352.484 981.595 352.388 981.503C352.387 981.502 352.386 981.501 352.386 981.501L339.667 969.075C339.666 969.074 339.666 969.074 339.665 969.073C339.536 968.945 339.386 968.831 339.218 968.741L325.762 961.465L325.757 961.463C325.609 961.385 325.45 961.323 325.286 961.28L325.277 961.278L311.326 957.896L311.429 950.084C311.441 949.146 310.771 948.338 309.846 948.15L295.889 945.288L290.913 926.631L291.003 919.798C291.003 919.797 291.003 919.797 291.003 919.796C291.015 919.187 290.734 918.624 290.267 918.249L290.265 918.248L265.08 898.222L265.075 898.218C264.894 898.077 264.692 897.972 264.487 897.898L264.48 897.896L252.24 893.735L249.838 890.45L256.093 881.28L261.036 879.824L265.309 881.556C265.31 881.556 265.311 881.556 265.311 881.557C265.81 881.765 266.372 881.761 266.867 881.548L573.956 889.004ZM573.956 889.004L558.177 888.795L558.175 888.795C557.957 888.791 557.746 888.75 557.543 888.682L557.54 888.68L471.66 858.813C470.859 858.536 470.325 857.788 470.333 856.946L470.333 856.944L470.436 849.249L459.003 835.108L458.999 835.103C458.827 834.883 458.695 834.629 458.628 834.342C458.628 834.342 458.627 834.341 458.627 834.34L457.216 828.517L573.956 889.004ZM443.078 826.273L447.072 823.745L358.852 738.143L358.846 738.643L358.846 738.643C358.847 738.643 358.847 738.643 358.847 738.643L372.155 738.822L419.201 768.841C419.202 768.841 419.202 768.841 419.203 768.841C419.272 768.886 419.346 768.925 419.398 768.953L419.406 768.957L419.416 768.962L419.426 768.966L442.273 779.701L447.451 787.09L436.84 806.552L436.839 806.553C436.624 806.95 436.555 807.406 436.64 807.845L436.641 807.847L440.048 825.003C440.174 825.649 440.619 826.177 441.224 826.429L441.224 826.429C441.468 826.531 441.72 826.578 441.97 826.582C442.355 826.59 442.741 826.485 443.077 826.273L443.078 826.273ZM266.867 881.548L274.18 878.417L266.867 881.548ZM350.485 736.591L356.886 736.677L291.404 826.827L291.405 826.827C291.405 826.827 291.405 826.826 291.405 826.826L291.716 803.434L298.655 796.833L298.657 796.831C298.868 796.629 299.035 796.382 299.139 796.102C299.139 796.101 299.139 796.101 299.139 796.101L302.976 785.768L310.229 782.344C310.229 782.344 310.23 782.344 310.23 782.344C310.659 782.143 311.009 781.793 311.198 781.354C311.198 781.354 311.198 781.354 311.198 781.353L319.373 762.582C319.373 762.58 319.374 762.579 319.375 762.577C319.483 762.339 319.535 762.085 319.539 761.833L319.539 761.832L319.709 748.881L331.781 745.127L342.809 747.434L342.812 747.434C343.658 747.606 344.536 747.221 344.962 746.459L350.485 736.591ZM279.414 845.672L279.415 845.67L274.182 878.416C274.895 878.114 275.364 877.423 275.373 876.654C275.373 876.654 275.373 876.654 275.373 876.654L275.718 850.942L279.414 845.672ZM279.764 844.589L279.914 833.237L279.764 844.59L279.764 844.59C279.764 844.589 279.764 844.589 279.764 844.589Z" stroke="white"/>
<path d="M506.009 221.295L506.004 221.292C505.727 221.149 505.491 220.918 505.353 220.625C505.353 220.624 505.352 220.624 505.352 220.623L501.058 211.742L491.341 218.001L491.341 218.001C490.955 218.249 490.474 218.3 490.047 218.14C489.613 217.982 489.282 217.624 489.157 217.186L489.157 217.186L489.637 217.047L489.156 217.184L506.009 221.295ZM506.009 221.295L513.797 225.196V235.741C513.797 236.159 513.98 236.567 514.304 236.844L521.822 243.279L521.825 243.282C522.088 243.504 522.419 243.629 522.769 243.629H530.086L532.239 245.56L529.142 249.496L529.141 249.498C528.806 249.929 528.737 250.51 528.966 251.009L528.968 251.012L531.24 255.861L529.74 260.654L520.733 268.613L520.731 268.614C520.563 268.764 520.428 268.953 520.344 269.172C520.344 269.172 520.344 269.173 520.343 269.173L513.898 285.615L514.364 285.798L513.898 285.615C513.691 286.143 513.811 286.736 514.193 287.142C514.193 287.142 514.193 287.142 514.193 287.142L519.418 292.709L521.471 296.807L521.473 296.81C521.589 297.038 521.758 297.231 521.975 297.374L521.976 297.375L525.139 299.448V309.031C525.139 309.734 525.637 310.33 526.323 310.463L526.326 310.463L532.931 311.703L552.628 325.528L565.903 338.579L567.181 342.3L562.265 344.936L562.261 344.938C561.799 345.192 561.497 345.679 561.497 346.215V359.803C561.497 360.611 562.151 361.258 562.954 361.258H571.086M506.009 221.295L571.086 361.258M571.086 361.258V371.248C571.086 371.573 571.195 371.893 571.398 372.15L571.399 372.152L578.196 380.703L578.199 380.707L579.405 382.253L575.937 383.55L575.538 383.7L575.623 384.118L575.812 385.054L574.122 385.235L572.613 381.348C572.438 380.898 572.056 380.567 571.588 380.457L562.837 378.39L562.833 378.389C562.615 378.339 562.388 378.339 562.169 378.389L562.164 378.39L554.209 380.298C553.899 380.372 553.632 380.544 553.434 380.778L553.433 380.779L545.795 389.836L545.794 389.837C545.695 389.955 545.619 390.086 545.564 390.213L545.564 390.213L545.56 390.223L541.641 399.848L541.201 399.629C541.2 399.628 541.198 399.627 541.197 399.627C540.833 399.439 540.414 399.426 540.043 399.56L540.039 399.561L531.522 402.716L524.426 399.595C524.425 399.595 524.424 399.594 524.423 399.594C524.237 399.511 524.038 399.47 523.837 399.47H508.779L493.508 394.869L451.385 360.259C451.384 360.259 451.384 360.258 451.383 360.258C451.358 360.235 451.301 360.185 451.222 360.141L435.424 349.939L435.41 349.93L435.397 349.923L435.395 349.922L435.395 349.921L435.388 349.917L435.376 349.91C435.362 349.901 435.333 349.883 435.296 349.866L404.691 333.859L404.684 333.856L404.677 333.852C404.553 333.792 404.386 333.727 404.194 333.709L571.086 361.258ZM471.987 209.623L471.987 209.623L461.105 207.246L451.708 213.066L450.541 217.506M471.987 209.623L450.541 217.506M471.987 209.623L471.995 209.625L471.987 209.623ZM450.541 217.506L450.056 217.384L450.539 217.512L450.54 217.509C450.54 217.508 450.54 217.507 450.541 217.506ZM486.296 207.344L486.734 207.271L486.652 206.777L486.172 206.917L486.296 207.344ZM379.449 325.812V326.312H379.949V325.812H379.449ZM379.833 325.788L379.949 325.649V325.468H379.449L379.833 325.788ZM381.021 323.587L381.403 323.91C381.403 323.91 381.404 323.909 381.404 323.909L381.405 323.908L381.021 323.587ZM374.436 302.191L374.747 301.977L374.626 301.619L374.152 301.779L374.436 302.191ZM375.577 301.392L375.623 301.372L375.665 301.344L375.381 300.932L375.577 301.392ZM418.967 282.38L419.154 282.843C419.156 282.843 419.157 282.842 419.159 282.841L419.163 282.84L418.967 282.38ZM419.359 282.072L419.761 282.37L419.762 282.368L419.359 282.072ZM385.567 331.252L385.031 331.181L384.764 331.65L385.299 331.721L385.567 331.252ZM435.196 226.104L435.34 225.973L435.002 225.604V226.104H435.196ZM426.501 234.07L426.315 233.727L425.875 233.966L426.213 234.334L426.501 234.07ZM431.687 243.623L431.687 243.622L431.247 243.861L431.687 243.623ZM429.233 248.525L429.256 248.445L428.776 248.307L429.185 248.594L429.233 248.525ZM426.134 259.361V259.291H425.634L426.115 259.428L426.134 259.361ZM425.849 274.144L425.447 273.846L425.848 274.144C425.848 274.144 425.848 274.144 425.849 274.144C425.849 274.144 425.849 274.144 425.849 274.144ZM472.455 209.141L472.538 209.634L472.539 209.633C472.54 209.633 472.541 209.633 472.542 209.633L472.455 209.141Z" fill="white" fill-opacity="0.25" stroke="white"/>
<path d="M750.581 468.926L747.074 469.117L743.866 475.071L743.851 475.098L743.833 475.123L739.774 480.844L739.73 480.906L739.67 480.952L732.555 486.401L721.372 499.709L721.364 499.719L721.355 499.729L707.508 514.511L707.433 514.591L707.33 514.633L688.477 522.259L688.346 522.311L688.207 522.288L664.012 518.262L656.701 521.619L670.739 544.987H695.693C695.966 544.987 696.236 545.065 696.468 545.211L696.469 545.212L702.914 549.279H722.806L725.06 538.987C725.092 538.822 725.157 538.682 725.218 538.572L725.223 538.562L725.223 538.562L731.472 527.815V521.798C731.472 521.113 731.952 520.52 732.626 520.378L750.581 468.926ZM750.581 468.926L750.803 475.847L746.157 481.185L745.851 481.537L746.181 481.867L750.77 486.448L749.621 492.864L749.602 492.973L749.63 493.081L751.618 500.555L745.461 502.199L742.791 497.46C742.791 497.459 742.791 497.458 742.79 497.457C742.552 497.031 742.118 496.763 741.642 496.722C741.155 496.68 740.687 496.889 740.387 497.262L740.385 497.264L738.957 499.049C738.956 499.049 738.956 499.049 738.956 499.05C738.782 499.265 738.676 499.519 738.644 499.79L738.643 499.791L736.854 515.166L736.853 515.168C736.809 515.567 736.927 515.987 737.214 516.3C737.491 516.615 737.884 516.788 738.298 516.788H740.065V518.804L732.627 520.377L750.581 468.926Z" fill="white" fill-opacity="0.25" stroke="white"/>
<mask id="path-14-inside-3" fill="white">
<path d="M389.938 114.401L375.141 114.639L356.284 116.782L351.748 112.255L346.258 113.211L341.01 110.35H335.279L331.458 104.391L324.299 107.728L318.094 102.721L315.465 96.5239L308.545 96.762L303.294 97.7175L296.135 91.5203L297.565 89.3772L293.029 87.7103L287.539 91.044L257.706 87.7103L244.101 94.1426L241.711 92.952L216.172 104.87L214.977 110.353L200.183 110.591L193.259 109.877L184.905 110.353L167.479 108.924L163.9 105.826L159.367 106.781L152.208 106.302L151.013 108.448L152.923 113.217L165.81 116.315L172.969 119.176L181.561 121.322L179.654 122.75L161.99 124.9L158.884 129.192L161.513 130.621L149.576 132.526L143.613 129.427L140.984 128.713L135.733 129.903L128.812 130.382L124.515 128.474L120.22 129.427L116.399 129.665L103.274 139.202L101.602 149.212L101.125 152.311H115.925L118.548 154.695L111.151 159.699L118.31 161.607L119.028 166.134L123.326 168.042L121.895 171.861L118.077 173.29L118.551 177.817L115.928 180.674L118.551 185.678L125.236 189.018L125.474 199.507L123.564 203.561L124.518 205.707L129.531 205.949L133.587 210.476L128.336 211.905L129.054 213.575H135.497L140.272 215.718L146.238 214.762L144.805 217.626L150.775 220.007L156.98 220.483L157.692 222.388L165.092 222.623L170.82 234.782L179.174 236.211L191.823 232.874L195.641 234.544L199.697 219.289L218.553 221.436L232.871 227.153L242.432 238.122L267.255 234.306L275.371 226.68L279.907 217.858L291.363 218.575L293.751 223.82H306.164L312.607 218.099L318.338 219.528L318.577 226.68L312.607 230.493L314.617 240.078L319.995 235.699C320.022 235.678 320.053 235.66 320.086 235.638L326.215 231.717L324.236 223.799C324.187 223.6 324.202 223.386 324.284 223.193L326.436 218.186C326.626 217.743 327.118 217.511 327.583 217.65L346.515 223.253L361.91 214.168C362.193 214.003 362.54 213.99 362.833 214.138L377.842 221.809L389.256 217.321C389.422 217.255 389.609 217.237 389.787 217.276L400.577 219.359L415.329 212.342C415.455 212.284 415.594 212.251 415.739 212.251H431.36L447.7 207.64C448.092 207.528 448.512 207.679 448.744 208.01L450.724 210.847L460.343 204.885C460.554 204.755 460.807 204.71 461.052 204.764L472.327 207.227L487.185 204.755C487.662 204.674 488.124 204.966 488.259 205.43L491.123 215.284L500.476 209.255L496.004 198.476L489.346 194.347C488.984 194.121 488.815 193.684 488.932 193.277L491.081 185.765C491.157 185.494 491.347 185.271 491.606 185.16L495.436 183.438L492.593 178.263C492.539 178.158 492.5 178.046 492.485 177.929L491.452 170.037L481.668 160.615C481.472 160.425 481.363 160.157 481.378 159.882C481.39 159.608 481.52 159.352 481.734 159.183L487.103 154.891C487.212 154.807 487.333 154.743 487.466 154.71L494.129 153.046L497.356 144.031L492.617 138.355H478.031C477.569 138.355 477.174 138.023 477.093 137.568L474.229 121.481C474.162 121.105 474.328 120.722 474.648 120.514L483.741 114.612L479.148 111.185H470.157C469.919 111.185 469.689 111.095 469.511 110.932L461 103.113L455.109 105.398C454.901 105.479 454.669 105.485 454.457 105.413L447.268 102.962H439.37C439.304 102.962 439.238 102.953 439.171 102.941L430.983 101.172L427.186 107.493L417.161 109.642C417.161 109.642 415.012 112.74 414.535 113.455C414.058 114.169 402.125 117.747 402.125 117.747L389.938 114.401Z"/>
</mask>
<path d="M389.938 114.401L375.141 114.639L356.284 116.782L351.748 112.255L346.258 113.211L341.01 110.35H335.279L331.458 104.391L324.299 107.728L318.094 102.721L315.465 96.5239L308.545 96.762L303.294 97.7175L296.135 91.5203L297.565 89.3772L293.029 87.7103L287.539 91.044L257.706 87.7103L244.101 94.1426L241.711 92.952L216.172 104.87L214.977 110.353L200.183 110.591L193.259 109.877L184.905 110.353L167.479 108.924L163.9 105.826L159.367 106.781L152.208 106.302L151.013 108.448L152.923 113.217L165.81 116.315L172.969 119.176L181.561 121.322L179.654 122.75L161.99 124.9L158.884 129.192L161.513 130.621L149.576 132.526L143.613 129.427L140.984 128.713L135.733 129.903L128.812 130.382L124.515 128.474L120.22 129.427L116.399 129.665L103.274 139.202L101.602 149.212L101.125 152.311H115.925L118.548 154.695L111.151 159.699L118.31 161.607L119.028 166.134L123.326 168.042L121.895 171.861L118.077 173.29L118.551 177.817L115.928 180.674L118.551 185.678L125.236 189.018L125.474 199.507L123.564 203.561L124.518 205.707L129.531 205.949L133.587 210.476L128.336 211.905L129.054 213.575H135.497L140.272 215.718L146.238 214.762L144.805 217.626L150.775 220.007L156.98 220.483L157.692 222.388L165.092 222.623L170.82 234.782L179.174 236.211L191.823 232.874L195.641 234.544L199.697 219.289L218.553 221.436L232.871 227.153L242.432 238.122L267.255 234.306L275.371 226.68L279.907 217.858L291.363 218.575L293.751 223.82H306.164L312.607 218.099L318.338 219.528L318.577 226.68L312.607 230.493L314.617 240.078L319.995 235.699C320.022 235.678 320.053 235.66 320.086 235.638L326.215 231.717L324.236 223.799C324.187 223.6 324.202 223.386 324.284 223.193L326.436 218.186C326.626 217.743 327.118 217.511 327.583 217.65L346.515 223.253L361.91 214.168C362.193 214.003 362.54 213.99 362.833 214.138L377.842 221.809L389.256 217.321C389.422 217.255 389.609 217.237 389.787 217.276L400.577 219.359L415.329 212.342C415.455 212.284 415.594 212.251 415.739 212.251H431.36L447.7 207.64C448.092 207.528 448.512 207.679 448.744 208.01L450.724 210.847L460.343 204.885C460.554 204.755 460.807 204.71 461.052 204.764L472.327 207.227L487.185 204.755C487.662 204.674 488.124 204.966 488.259 205.43L491.123 215.284L500.476 209.255L496.004 198.476L489.346 194.347C488.984 194.121 488.815 193.684 488.932 193.277L491.081 185.765C491.157 185.494 491.347 185.271 491.606 185.16L495.436 183.438L492.593 178.263C492.539 178.158 492.5 178.046 492.485 177.929L491.452 170.037L481.668 160.615C481.472 160.425 481.363 160.157 481.378 159.882C481.39 159.608 481.52 159.352 481.734 159.183L487.103 154.891C487.212 154.807 487.333 154.743 487.466 154.71L494.129 153.046L497.356 144.031L492.617 138.355H478.031C477.569 138.355 477.174 138.023 477.093 137.568L474.229 121.481C474.162 121.105 474.328 120.722 474.648 120.514L483.741 114.612L479.148 111.185H470.157C469.919 111.185 469.689 111.095 469.511 110.932L461 103.113L455.109 105.398C454.901 105.479 454.669 105.485 454.457 105.413L447.268 102.962H439.37C439.304 102.962 439.238 102.953 439.171 102.941L430.983 101.172L427.186 107.493L417.161 109.642C417.161 109.642 415.012 112.74 414.535 113.455C414.058 114.169 402.125 117.747 402.125 117.747L389.938 114.401Z" stroke="white" stroke-width="2" mask="url(#path-14-inside-3)"/>
<path d="M499.591 142.954L501.55 145.365L509.059 144.116L509.063 144.115C509.439 144.057 509.828 144.142 510.145 144.367L510.148 144.369L516.92 149.244L527.825 155.239L527.827 155.241C528.066 155.374 528.266 155.574 528.4 155.817L528.4 155.818L533.964 166.004L534.013 165.998L539.903 164.983L530.515 150.56L523.116 145.48L499.591 142.954ZM499.591 142.954L499.587 142.947L499.55 142.902L499.503 142.847M499.591 142.954L499.503 142.847M499.503 142.847L498.672 141.824V141.851L494.178 136.47C493.902 136.14 493.493 135.947 493.061 135.947H479.243L476.761 122.004L490.121 113.329L507.784 107.282L509.164 109.95L507.36 112.234C507.36 112.234 507.36 112.234 507.36 112.235C507.036 112.645 506.95 113.204 507.163 113.7C507.369 114.183 507.819 114.524 508.353 114.579L508.352 114.579L508.404 114.082L508.353 114.579L499.503 142.847ZM517.854 115.568L518.256 118.993M517.854 115.568L523.115 145.48C522.766 145.241 522.531 144.856 522.49 144.423M517.854 115.568L518.252 115.61L518.303 115.112M517.854 115.568L517.807 115.171L518.303 115.112M518.256 118.993L513.272 122.783L513.574 123.181M518.256 118.993L518.29 119.276L518.786 119.218M518.256 118.993L518.484 118.82L518.786 119.218M513.574 123.181L513.271 122.784C512.948 123.029 512.743 123.393 512.705 123.799M513.574 123.181C513.36 123.344 513.227 123.582 513.203 123.848M513.574 123.181L518.786 119.218M512.705 123.799C512.665 124.198 512.793 124.602 513.062 124.903L513.061 124.902L513.435 124.571M512.705 123.799C512.705 123.8 512.705 123.801 512.705 123.802L513.203 123.848M512.705 123.799C512.705 123.798 512.705 123.797 512.706 123.796L513.203 123.848M513.435 124.571L513.062 124.904L519.667 132.371C519.942 132.683 520.335 132.863 520.757 132.863H526.353V139.719L522.895 143.266L522.892 143.269C522.596 143.578 522.448 143.998 522.49 144.423M513.435 124.571L520.042 132.04L518.303 115.112M513.435 124.571C513.26 124.375 513.176 124.11 513.203 123.848M522.49 144.423C522.49 144.422 522.49 144.422 522.49 144.422L522.987 144.374L522.49 144.423C522.49 144.423 522.49 144.423 522.49 144.423ZM518.786 119.218L518.303 115.112" stroke="white"/>
<path d="M515.41 151.735L515.424 151.744L515.438 151.751L526.045 157.586L530.873 166.428L524.207 167.345L513.389 159.918L503.665 147.96L508.94 147.081L515.287 151.658L515.299 151.667L515.311 151.675C515.335 151.69 515.357 151.703 515.373 151.712L515.375 151.714C515.392 151.724 515.402 151.73 515.41 151.735Z" stroke="white"/>
<path d="M617.205 469.122L617.229 469.164L617.26 469.201L625.648 478.957L622.441 485.817L622.378 485.951L622.399 486.099L624.454 500.639L624.483 500.845L624.65 500.969L636.428 509.782L636.441 509.792L642.392 514.551L642.416 514.57L642.443 514.586L654.153 521.781L654.04 521.848L653.61 522.106L653.868 522.535L668.671 547.179L668.673 547.181C668.935 547.613 669.41 547.883 669.918 547.883H695.276L701.712 551.945C701.714 551.946 701.715 551.947 701.717 551.948C701.956 552.104 702.23 552.175 702.497 552.175H723.246L733.805 566.346L719.607 606.815L654.741 631.545L587.715 641.89L587.707 641.892C587.523 641.923 587.352 641.986 587.192 642.079L587.187 642.082L572.877 650.657C572.875 650.659 572.873 650.66 572.871 650.661C572.728 650.743 572.604 650.85 572.504 650.968L572.503 650.969L562.84 662.407C562.84 662.407 562.839 662.408 562.839 662.408C562.724 662.541 562.635 662.695 562.578 662.856C562.578 662.856 562.578 662.856 562.578 662.856L559.573 671.187L549.166 675.468L546.229 670.477L546.226 670.471C545.962 670.034 545.489 669.763 544.972 669.763H531.54L506.291 663.724L506.283 663.722C506.121 663.686 505.958 663.677 505.792 663.695L479.887 666.489L473.908 661.844L473.904 661.841C473.563 661.582 473.125 661.481 472.701 661.573L472.699 661.573L466.256 663.005L466.252 663.006C465.595 663.156 465.116 663.74 465.116 664.424V681.276L460.033 685.639L459.891 683.611L459.88 683.455L459.783 683.333L452.21 673.877L450.93 669.443L450.897 669.327L450.814 669.239L433.84 651.181L427.386 636.954L427.374 636.928L427.359 636.903L410.893 609.489L410.794 609.324L410.609 609.268L395.056 604.562L378.07 572.991L383.256 556.983L383.323 556.774L383.215 556.583L362.448 519.873L362.381 519.754L362.263 519.686L347.062 510.911L339.862 502.323L341.03 493.005L341.05 492.846L340.973 492.704L335.003 481.736L334.882 481.513L334.631 481.479L329.839 480.83L330.05 476.759L330.059 476.591L329.965 476.452L325.439 469.787L325.432 469.775L301.491 432.285L301.46 432.236L301.419 432.195L295.214 426.155L295.088 426.033L294.914 426.016L284.602 424.997L290.312 418.255L290.448 418.094L290.428 417.884L289.486 408.153L291.51 403.182L291.551 403.081L291.546 402.972L291.389 399.225L291.816 397.323L310.457 402.311C310.583 402.348 310.713 402.366 310.842 402.366C311.019 402.366 311.209 402.335 311.393 402.259C311.393 402.258 311.394 402.258 311.395 402.258L324.639 396.877L324.64 396.876C324.817 396.803 324.979 396.698 325.118 396.559L335.788 385.92H348.073C348.56 385.92 349.015 385.677 349.286 385.269L359.308 370.204L359.309 370.204C359.709 369.602 359.606 368.807 359.075 368.322L359.074 368.321L347.288 357.668L341.486 351.876L339.88 346.53L382.437 335.818L382.438 335.818C382.817 335.722 383.15 335.473 383.346 335.134L383.347 335.133L384.01 333.974L403.572 336.55L433.901 352.413L449.593 362.54L491.89 397.291L491.892 397.293C492.038 397.411 492.207 397.503 492.393 397.558L508.146 402.309L508.146 402.309L508.158 402.312C508.281 402.346 508.423 402.369 508.565 402.369H523.532L530.884 405.596C530.886 405.597 530.887 405.597 530.889 405.598C531.236 405.758 531.634 405.762 531.981 405.636L531.984 405.635L540.457 402.498L546.576 405.571L546.577 405.572C546.783 405.674 547.007 405.724 547.229 405.724H556.585L566.174 416.88C566.174 416.88 566.174 416.88 566.174 416.88C566.452 417.204 566.857 417.386 567.281 417.386H580.351L588.064 432.131L590.199 437.82L590.262 437.988L590.418 438.078L596.569 441.623L608.169 453.211L617.205 469.122Z" fill="#035494" stroke="white"/>
<path d="M629.31 473.231L627.898 468.328V462.839L628.932 461.636L630.834 466.568V471.319L629.31 473.231Z" stroke="white"/>
<path d="M643.206 474.581L643.239 474.647L643.289 474.7L646.702 478.332L645.071 488.098L645.058 488.176L645.069 488.255L646.711 499.26L640.853 507.358L634.858 504.918L631.473 501.759L629.621 489.845L635.004 481.541L635.047 481.474L635.068 481.397L637.145 473.564L641.965 472.096L643.206 474.581Z" stroke="white"/>
<path d="M584.376 94.744L602.913 122.68L603.003 122.816L603.156 122.873L612.82 126.448L612.904 126.479H612.994H620.848L621.647 129.412H617.288H617.211L617.137 129.436L609.263 131.934L609.182 131.96L609.114 132.011L603.386 136.303L603.149 136.481L603.191 136.774L603.883 141.619L601.096 146.837L601.037 146.947V147.072V154.101L595.979 164.207L591.799 161.316L591.187 160.893L591.026 161.619L590.314 164.838L590.301 164.898L590.302 164.959L590.65 178.977L585.217 179.839L579.654 174.286C579.654 174.286 579.654 174.286 579.654 174.286C579.556 174.188 579.452 174.113 579.349 174.051L579.349 174.051L579.337 174.044L574.225 171.173L573.676 167.606L575.321 163.325C575.322 163.324 575.323 163.322 575.323 163.321C575.42 163.079 575.447 162.814 575.402 162.556C575.402 162.555 575.401 162.554 575.401 162.552L574.833 159.139L576.983 157.527C576.984 157.527 576.984 157.526 576.985 157.526C577.355 157.252 577.57 156.816 577.57 156.362V150.644C577.57 149.841 576.921 149.191 576.119 149.191H570.747C570.437 149.191 570.141 149.288 569.893 149.467L569.892 149.468L566.428 151.983L564.505 151.708C564.251 151.671 563.989 151.703 563.751 151.799L563.749 151.8L556.138 154.909H554.637C554.269 154.909 553.912 155.051 553.645 155.299C553.645 155.299 553.645 155.299 553.645 155.299L543.936 164.301L543.019 164.459L532.793 148.75C532.792 148.749 532.792 148.748 532.791 148.746C532.685 148.579 532.548 148.446 532.407 148.343L532.407 148.343L532.396 148.336L526.18 144.069L528.85 141.333L528.85 141.333L528.854 141.328C529.113 141.056 529.26 140.695 529.26 140.317V131.413C529.26 130.612 528.607 129.961 527.807 129.961H521.408L516.276 124.155L520.677 120.811C520.678 120.81 520.678 120.81 520.678 120.81C521.093 120.497 521.304 119.991 521.244 119.482L521.244 119.482L520.607 114.079C520.607 114.078 520.607 114.078 520.607 114.078C520.528 113.394 519.983 112.874 519.314 112.801L519.312 112.801L511.28 111.961L512.028 111.016L512.029 111.015C512.384 110.564 512.437 109.954 512.182 109.449L512.182 109.449L512.18 109.445L510.566 106.331L514.453 104.999L531.461 112.973L531.461 112.973L531.465 112.975C531.569 113.023 531.678 113.06 531.795 113.083L531.795 113.083L542.529 115.225C542.531 115.225 542.532 115.225 542.533 115.225C542.963 115.317 543.408 115.202 543.74 114.929C544.087 114.652 544.278 114.236 544.278 113.804V99.5638L545.071 98.2938L550.502 101.719L558.264 109.471L558.267 109.474C558.571 109.772 558.98 109.918 559.396 109.891L559.4 109.89L569.067 109.173L569.067 109.173L569.03 108.674M584.376 94.744L581.061 101.282L580.963 100.792M584.376 94.744L582.123 100.394M584.376 94.744L582.123 100.394M569.03 108.674C569.44 108.644 569.784 108.355 569.884 107.957L571.17 102.818M569.03 108.674L559.363 109.392M569.03 108.674L559.363 109.392M571.17 102.818L571.271 103.307L571.579 103.244L571.655 102.939L571.17 102.818ZM571.17 102.818L580.963 100.792M580.963 100.792L581.064 101.282L581.063 101.282C581.548 101.184 581.943 100.848 582.122 100.394L582.122 100.396L581.657 100.21M580.963 100.792C581.28 100.729 581.54 100.509 581.657 100.21M581.657 100.21L582.123 100.394M581.657 100.21L582.123 100.394M559.363 109.392C559.086 109.41 558.817 109.313 558.618 109.117L550.816 101.326L559.363 109.392Z" stroke="white"/>
<path d="M655.629 634.325L655.631 634.324L656.224 634.095L678.949 683.9L662.752 692.268L662.519 692.389L662.486 692.648L661.06 703.549L659.566 707.177L655.178 706.521L655.007 706.495L654.856 706.581L637.004 716.802L594.572 729.9L594.426 729.946L594.33 730.065L590.541 734.791L583.806 740.358L570.391 739.889L570.263 739.884L570.149 739.942L537.074 756.576L518.095 756.813L517.763 756.817L517.638 757.125L514.182 765.639L501.146 765.871L501.037 765.873L500.939 765.92L489.148 771.574L474.085 769.26L468.743 753.022L470.365 748.173L470.467 747.869L470.234 747.65L466.293 743.943L460.835 717.401L460.829 717.372L460.819 717.343L457.299 706.792L462.238 694.805L462.322 694.601L462.228 694.402L460.36 690.435L460.279 689.257L467.509 683.051C467.51 683.051 467.51 683.051 467.511 683.05C467.841 682.771 468.019 682.365 468.019 681.949V665.594L472.658 664.566L478.56 669.151L478.562 669.152C478.857 669.379 479.232 669.49 479.611 669.449C479.612 669.449 479.612 669.449 479.612 669.449L505.852 666.616L531.018 672.634C531.147 672.669 531.265 672.677 531.365 672.677H544.138L547.295 678.04L547.296 678.041C547.663 678.661 548.434 678.922 549.105 678.647L549.105 678.647L561.268 673.644C561.27 673.643 561.272 673.642 561.273 673.642C561.658 673.49 561.955 673.171 562.089 672.787C562.09 672.786 562.09 672.784 562.09 672.783L565.224 664.1L574.568 653.037L588.434 644.727L655.321 634.402C655.441 634.389 655.545 634.356 655.629 634.325Z" stroke="white"/>
<path d="M699.628 771.124H699.738L699.838 771.078L704.271 769.035L710.501 772.141L703.728 777.294L692.289 778.68L687.545 773.939L692.246 771.124H699.628Z" stroke="white"/>
<mask id="path-23-inside-4" fill="white">
<path d="M992.954 516.867L995.248 509.657C995.377 509.247 995.752 508.967 996.18 508.952L1007.28 508.617C1007.4 508.617 1007.52 508.629 1007.63 508.665L1015.55 511.303H1020.58L1029.16 508.011C1029.37 507.93 1029.61 507.924 1029.83 507.993L1039.6 511.143L1042.2 507.981C1042.24 507.927 1042.29 507.879 1042.34 507.836L1047.01 504.044L1041.47 495.737C1041.42 495.665 1041.38 495.593 1041.35 495.514L1037.69 485.203L1033.69 478.819H1028.95C1028.63 478.819 1028.33 478.671 1028.14 478.415L1025.87 475.391C1025.76 475.241 1025.69 475.063 1025.68 474.876L1024.26 459.392L1015.5 460.887C1014.99 460.968 1014.51 460.67 1014.36 460.182L1010.58 447.582C1010.47 447.23 1010.57 446.853 1010.82 446.588L1032.02 424.94C1032.22 424.729 1032.52 424.614 1032.82 424.641C1033.11 424.665 1033.39 424.819 1033.56 425.063L1040.68 435.155L1064.58 426.341L1073.48 410.04C1073.56 409.899 1073.67 409.772 1073.81 409.685L1091.81 397.706L1103.05 380.489C1103.16 380.314 1103.33 380.179 1103.53 380.1L1111.97 376.875V365.921C1111.97 365.683 1112.05 365.451 1112.21 365.273L1123.96 351.327L1121.1 342.025C1120.97 341.609 1121.13 341.151 1121.49 340.898L1137.59 329.778L1131.45 326.758C1131.41 326.737 1131.38 326.713 1131.34 326.689L1122.51 320.781H1113.73C1113.36 320.781 1113.01 320.576 1112.84 320.244L1105.27 305.912C1105.16 305.713 1105.13 305.484 1105.17 305.267L1107.42 292.498V287.073L1100.11 282.078C1099.67 281.774 1099.54 281.171 1099.83 280.716L1104.55 273.153C1104.67 272.96 1104.85 272.816 1105.06 272.737L1121.71 266.688C1121.92 266.612 1122.15 266.606 1122.36 266.676L1141.06 272.65L1169.05 268.237L1177.01 250.788L1167.12 249.022C1166.64 248.94 1166.29 248.521 1166.29 248.033V242.993H1150.14C1149.76 242.993 1149.41 242.782 1149.24 242.445C1149.07 242.107 1149.09 241.706 1149.32 241.399L1154.01 234.837L1146.88 220.601L1137.15 216.712C1136.76 216.562 1136.51 216.188 1136.51 215.778V213.695L1128.28 216.721C1128.03 216.812 1127.75 216.806 1127.51 216.691L1122.14 214.21L1116.83 218.295H1094.12L1072.42 221.824L1052.23 235.937L1061.32 249.046L1057.78 262.151L1046.17 271.221L1050.21 279.791L1041.12 283.32H1025.48L1021.44 287.353L1027.5 292.393L1028.51 305.999L1018.92 309.025L1009.84 321.124L1010.34 337.757L1000.25 341.787L989.145 337.757L977.538 343.3V352.879H955.334L946.757 360.439L946.253 380.601L931.112 384.887L899.824 392.7L864.498 393.203L830.684 384.887L845.572 410.342L859.448 416.639L867.359 422.269L872.743 441.759H875.097L882.835 446.461L877.454 460.236H859.62L847.171 469.309L844.814 484.431L842.795 494.51L857.598 493.838L868.367 490.143L882.494 491.153L884.513 487.457L893.932 486.447L903.355 489.805H914.793L918.831 487.792H933.97L944.065 484.431L951.803 492.156V499.55L961.895 503.583V509.633L970.307 521.391L978.38 525.087L983.091 520.719L991.095 518.302L992.954 516.867Z"/>
</mask>
<path d="M992.954 516.867L995.248 509.657C995.377 509.247 995.752 508.967 996.18 508.952L1007.28 508.617C1007.4 508.617 1007.52 508.629 1007.63 508.665L1015.55 511.303H1020.58L1029.16 508.011C1029.37 507.93 1029.61 507.924 1029.83 507.993L1039.6 511.143L1042.2 507.981C1042.24 507.927 1042.29 507.879 1042.34 507.836L1047.01 504.044L1041.47 495.737C1041.42 495.665 1041.38 495.593 1041.35 495.514L1037.69 485.203L1033.69 478.819H1028.95C1028.63 478.819 1028.33 478.671 1028.14 478.415L1025.87 475.391C1025.76 475.241 1025.69 475.063 1025.68 474.876L1024.26 459.392L1015.5 460.887C1014.99 460.968 1014.51 460.67 1014.36 460.182L1010.58 447.582C1010.47 447.23 1010.57 446.853 1010.82 446.588L1032.02 424.94C1032.22 424.729 1032.52 424.614 1032.82 424.641C1033.11 424.665 1033.39 424.819 1033.56 425.063L1040.68 435.155L1064.58 426.341L1073.48 410.04C1073.56 409.899 1073.67 409.772 1073.81 409.685L1091.81 397.706L1103.05 380.489C1103.16 380.314 1103.33 380.179 1103.53 380.1L1111.97 376.875V365.921C1111.97 365.683 1112.05 365.451 1112.21 365.273L1123.96 351.327L1121.1 342.025C1120.97 341.609 1121.13 341.151 1121.49 340.898L1137.59 329.778L1131.45 326.758C1131.41 326.737 1131.38 326.713 1131.34 326.689L1122.51 320.781H1113.73C1113.36 320.781 1113.01 320.576 1112.84 320.244L1105.27 305.912C1105.16 305.713 1105.13 305.484 1105.17 305.267L1107.42 292.498V287.073L1100.11 282.078C1099.67 281.774 1099.54 281.171 1099.83 280.716L1104.55 273.153C1104.67 272.96 1104.85 272.816 1105.06 272.737L1121.71 266.688C1121.92 266.612 1122.15 266.606 1122.36 266.676L1141.06 272.65L1169.05 268.237L1177.01 250.788L1167.12 249.022C1166.64 248.94 1166.29 248.521 1166.29 248.033V242.993H1150.14C1149.76 242.993 1149.41 242.782 1149.24 242.445C1149.07 242.107 1149.09 241.706 1149.32 241.399L1154.01 234.837L1146.88 220.601L1137.15 216.712C1136.76 216.562 1136.51 216.188 1136.51 215.778V213.695L1128.28 216.721C1128.03 216.812 1127.75 216.806 1127.51 216.691L1122.14 214.21L1116.83 218.295H1094.12L1072.42 221.824L1052.23 235.937L1061.32 249.046L1057.78 262.151L1046.17 271.221L1050.21 279.791L1041.12 283.32H1025.48L1021.44 287.353L1027.5 292.393L1028.51 305.999L1018.92 309.025L1009.84 321.124L1010.34 337.757L1000.25 341.787L989.145 337.757L977.538 343.3V352.879H955.334L946.757 360.439L946.253 380.601L931.112 384.887L899.824 392.7L864.498 393.203L830.684 384.887L845.572 410.342L859.448 416.639L867.359 422.269L872.743 441.759H875.097L882.835 446.461L877.454 460.236H859.62L847.171 469.309L844.814 484.431L842.795 494.51L857.598 493.838L868.367 490.143L882.494 491.153L884.513 487.457L893.932 486.447L903.355 489.805H914.793L918.831 487.792H933.97L944.065 484.431L951.803 492.156V499.55L961.895 503.583V509.633L970.307 521.391L978.38 525.087L983.091 520.719L991.095 518.302L992.954 516.867Z" stroke="white" stroke-width="2" mask="url(#path-23-inside-4)"/>
<mask id="path-24-inside-5" fill="white">
<path d="M859.064 457.321L875.494 457.195L880.245 447.323L874.405 443.477L870.557 443.54L864.847 423.351L843.729 411.62L829.225 386.174L827.206 382.216L849.186 387.136L844.372 377.52L854.063 369.385L861.862 364.252L857.057 359.339C856.783 359.185 856.598 358.907 856.565 358.597C856.535 358.281 856.662 357.973 856.906 357.771L861.862 353.642L860.329 351.987L850.544 348.921C850.454 348.891 850.363 348.849 850.285 348.795L845.51 345.458C845.254 345.28 845.103 344.988 845.103 344.674V318.207L839.996 308.902C839.824 308.591 839.842 308.209 840.041 307.91L844.517 301.261L842.791 296.459L839.975 290.75C839.839 290.476 839.842 290.153 839.987 289.885L843.564 283.139L839.957 274.983C839.851 274.751 839.848 274.486 839.942 274.254C840.032 274.015 840.214 273.825 840.446 273.726L849.47 269.756L852.255 247.852L850.882 223.585H834.597C834.313 223.585 834.045 223.458 833.864 223.244L826.919 214.913L818.17 213.059C817.874 212.996 817.627 212.797 817.5 212.523L812.906 202.44L800.569 198.787H795.933C795.839 198.787 795.743 198.775 795.655 198.748L784.691 195.414L774.203 192.556C774.016 192.505 773.853 192.403 773.729 192.255L768.288 185.916H757.48L746.211 191.073C746.006 191.167 745.78 191.182 745.562 191.125L735.376 188.352L715.741 196.559V204.505C715.741 204.984 715.379 205.391 714.902 205.451L699.688 207.326L702.139 216.414L699.634 219.63L686.744 218.201L653.449 224.995L639.847 223.208L629.106 215.341L620.513 208.55L621.229 201.038L615.141 196.752L616.575 200.683L607.979 202.47L597.957 200.683L591.51 193.533L591.205 181.31L584.855 182.317C584.807 182.326 584.756 182.329 584.707 182.329C584.454 182.329 584.212 182.23 584.031 182.052L578.038 176.069L572.424 172.913C572.168 172.768 571.995 172.515 571.947 172.232L571.232 167.581C571.208 167.418 571.223 167.249 571.286 167.092L572.982 162.686L572.309 158.653C572.252 158.3 572.394 157.944 572.681 157.73L575.161 155.871V151.578H571.06L567.369 154.258C567.167 154.406 566.919 154.466 566.675 154.43L564.423 154.11L556.788 157.23C556.676 157.278 556.549 157.302 556.423 157.302H555.01L545.262 166.345C545.126 166.469 544.954 166.553 544.776 166.583L534.394 168.37C534.385 168.37 534.373 168.373 534.361 168.377L523.979 169.805C523.743 169.838 523.505 169.781 523.309 169.649L511.852 161.781C511.777 161.73 511.707 161.667 511.65 161.598L498.76 145.746L495.754 154.165C495.645 154.463 495.395 154.689 495.084 154.767L488.128 156.507L483.77 159.988L493.014 168.889C493.171 169.04 493.267 169.239 493.297 169.453L494.348 177.497L497.604 183.417C497.731 183.649 497.755 183.927 497.674 184.18C497.589 184.433 497.402 184.638 497.161 184.747L492.79 186.709L490.962 193.099L497.269 197.008C497.441 197.114 497.571 197.271 497.646 197.455L502.53 209.228L507.392 219.28L515.691 223.425C516.014 223.588 516.219 223.916 516.219 224.278V235.283L523.137 241.203H530.658C530.893 241.203 531.122 241.29 531.297 241.447L534.877 244.666C535.254 245.001 535.302 245.567 534.991 245.965L531.415 250.508L533.67 255.342C533.769 255.556 533.787 255.801 533.718 256.03L531.925 261.751C531.874 261.916 531.777 262.061 531.647 262.179L522.515 270.251L516.373 285.925L521.332 291.202C521.395 291.272 521.447 291.347 521.489 291.428L523.52 295.492L527.127 297.849C527.395 298.027 527.558 298.328 527.558 298.647V308.227L533.7 309.378C533.836 309.402 533.962 309.456 534.074 309.532L554.12 323.611C554.165 323.641 554.204 323.677 554.243 323.714L567.849 337.091C567.951 337.193 568.03 337.32 568.081 337.461L569.871 342.676C570.022 343.116 569.832 343.604 569.418 343.824L563.916 346.772V358.832H572.545C573.07 358.832 573.498 359.257 573.498 359.785V370.895L580.09 379.196L582.245 381.954L581.49 382.542L592.584 382.331L590.674 373.511L596.644 371.603L597.121 378.042L604.518 382.334L611.68 377.804L619.315 382.334V386.623L624.95 390.201L631.251 399.262L628.629 399.497L633.642 403.072L633.165 406.408L635.787 409.51L637.459 411.891L638.655 418.327L641.996 427.149L646.052 430.962H653.69L666.339 437.159L670.637 445.264L691.642 456.227L692.596 458.85L701.427 458.132L710.496 462.427L728.16 456.706L733.412 456.227L735.796 451.459L744.868 449.554L760.384 449.316L764.201 458.611L765.505 473.137L769.088 480.769L786.641 482.93L794.038 485.314L806.372 486.743L816.715 488.651L834.051 489.721L841.496 492.434L845.091 467.307L859.064 457.321Z"/>
</mask>
<path d="M859.064 457.321L875.494 457.195L880.245 447.323L874.405 443.477L870.557 443.54L864.847 423.351L843.729 411.62L829.225 386.174L827.206 382.216L849.186 387.136L844.372 377.52L854.063 369.385L861.862 364.252L857.057 359.339C856.783 359.185 856.598 358.907 856.565 358.597C856.535 358.281 856.662 357.973 856.906 357.771L861.862 353.642L860.329 351.987L850.544 348.921C850.454 348.891 850.363 348.849 850.285 348.795L845.51 345.458C845.254 345.28 845.103 344.988 845.103 344.674V318.207L839.996 308.902C839.824 308.591 839.842 308.209 840.041 307.91L844.517 301.261L842.791 296.459L839.975 290.75C839.839 290.476 839.842 290.153 839.987 289.885L843.564 283.139L839.957 274.983C839.851 274.751 839.848 274.486 839.942 274.254C840.032 274.015 840.214 273.825 840.446 273.726L849.47 269.756L852.255 247.852L850.882 223.585H834.597C834.313 223.585 834.045 223.458 833.864 223.244L826.919 214.913L818.17 213.059C817.874 212.996 817.627 212.797 817.5 212.523L812.906 202.44L800.569 198.787H795.933C795.839 198.787 795.743 198.775 795.655 198.748L784.691 195.414L774.203 192.556C774.016 192.505 773.853 192.403 773.729 192.255L768.288 185.916H757.48L746.211 191.073C746.006 191.167 745.78 191.182 745.562 191.125L735.376 188.352L715.741 196.559V204.505C715.741 204.984 715.379 205.391 714.902 205.451L699.688 207.326L702.139 216.414L699.634 219.63L686.744 218.201L653.449 224.995L639.847 223.208L629.106 215.341L620.513 208.55L621.229 201.038L615.141 196.752L616.575 200.683L607.979 202.47L597.957 200.683L591.51 193.533L591.205 181.31L584.855 182.317C584.807 182.326 584.756 182.329 584.707 182.329C584.454 182.329 584.212 182.23 584.031 182.052L578.038 176.069L572.424 172.913C572.168 172.768 571.995 172.515 571.947 172.232L571.232 167.581C571.208 167.418 571.223 167.249 571.286 167.092L572.982 162.686L572.309 158.653C572.252 158.3 572.394 157.944 572.681 157.73L575.161 155.871V151.578H571.06L567.369 154.258C567.167 154.406 566.919 154.466 566.675 154.43L564.423 154.11L556.788 157.23C556.676 157.278 556.549 157.302 556.423 157.302H555.01L545.262 166.345C545.126 166.469 544.954 166.553 544.776 166.583L534.394 168.37C534.385 168.37 534.373 168.373 534.361 168.377L523.979 169.805C523.743 169.838 523.505 169.781 523.309 169.649L511.852 161.781C511.777 161.73 511.707 161.667 511.65 161.598L498.76 145.746L495.754 154.165C495.645 154.463 495.395 154.689 495.084 154.767L488.128 156.507L483.77 159.988L493.014 168.889C493.171 169.04 493.267 169.239 493.297 169.453L494.348 177.497L497.604 183.417C497.731 183.649 497.755 183.927 497.674 184.18C497.589 184.433 497.402 184.638 497.161 184.747L492.79 186.709L490.962 193.099L497.269 197.008C497.441 197.114 497.571 197.271 497.646 197.455L502.53 209.228L507.392 219.28L515.691 223.425C516.014 223.588 516.219 223.916 516.219 224.278V235.283L523.137 241.203H530.658C530.893 241.203 531.122 241.29 531.297 241.447L534.877 244.666C535.254 245.001 535.302 245.567 534.991 245.965L531.415 250.508L533.67 255.342C533.769 255.556 533.787 255.801 533.718 256.03L531.925 261.751C531.874 261.916 531.777 262.061 531.647 262.179L522.515 270.251L516.373 285.925L521.332 291.202C521.395 291.272 521.447 291.347 521.489 291.428L523.52 295.492L527.127 297.849C527.395 298.027 527.558 298.328 527.558 298.647V308.227L533.7 309.378C533.836 309.402 533.962 309.456 534.074 309.532L554.12 323.611C554.165 323.641 554.204 323.677 554.243 323.714L567.849 337.091C567.951 337.193 568.03 337.32 568.081 337.461L569.871 342.676C570.022 343.116 569.832 343.604 569.418 343.824L563.916 346.772V358.832H572.545C573.07 358.832 573.498 359.257 573.498 359.785V370.895L580.09 379.196L582.245 381.954L581.49 382.542L592.584 382.331L590.674 373.511L596.644 371.603L597.121 378.042L604.518 382.334L611.68 377.804L619.315 382.334V386.623L624.95 390.201L631.251 399.262L628.629 399.497L633.642 403.072L633.165 406.408L635.787 409.51L637.459 411.891L638.655 418.327L641.996 427.149L646.052 430.962H653.69L666.339 437.159L670.637 445.264L691.642 456.227L692.596 458.85L701.427 458.132L710.496 462.427L728.16 456.706L733.412 456.227L735.796 451.459L744.868 449.554L760.384 449.316L764.201 458.611L765.505 473.137L769.088 480.769L786.641 482.93L794.038 485.314L806.372 486.743L816.715 488.651L834.051 489.721L841.496 492.434L845.091 467.307L859.064 457.321Z" stroke="white" stroke-width="2" mask="url(#path-24-inside-5)"/>
<path d="M817.019 551.418L817.098 551.52L817.216 551.572L823.011 554.109L824.281 557.072L816.788 575.319L803.802 583.1L803.664 583.183L803.6 583.331L796.324 600.209L791.447 600.421L788.973 596.152L788.575 595.465L788.127 596.121L780.969 606.61L780.896 606.717L780.884 606.846L779.212 624.726L779.205 624.793L779.217 624.859L780.79 633.825L766.565 634.283L766.418 634.288L766.297 634.371L756.274 641.283L756.125 641.386L756.076 641.561L754.181 648.419L750.519 655.28L730.984 656.692L730.744 656.709L730.608 656.907L725.354 664.533L725.198 664.759L725.305 665.011L727.779 670.85L719.42 677.169L703.869 675.286L703.763 675.273L703.662 675.304L683.61 681.501L683.567 681.514L683.528 681.535L681.55 682.557L658.958 633.053L721.272 609.293C721.272 609.292 721.273 609.292 721.273 609.292C721.676 609.141 721.991 608.819 722.13 608.412C722.13 608.412 722.131 608.411 722.131 608.41L736.809 566.58L736.81 566.577C736.965 566.127 736.894 565.62 736.598 565.23C736.597 565.229 736.597 565.229 736.596 565.228L725.542 550.39L727.855 539.82L734.183 528.936C734.184 528.935 734.184 528.934 734.185 528.933C734.316 528.712 734.384 528.456 734.384 528.203V522.969L741.822 521.401L741.826 521.4C742.492 521.255 742.976 520.665 742.976 519.978V515.33C742.976 514.523 742.321 513.877 741.519 513.877H739.929L741.429 500.976L743.471 504.6L743.471 504.601C743.795 505.175 744.469 505.468 745.114 505.293C745.115 505.293 745.115 505.293 745.116 505.293L752.358 503.366L752.728 504.758L752.75 504.842L752.8 504.914L765.687 523.509L765.802 523.674L765.999 523.714L783.664 527.289L783.674 527.291L783.685 527.293L797.161 529.418L804.883 535.499L817.019 551.418Z" stroke="white"/>
<path d="M641.516 821.633L641.643 821.475L644.076 818.469L645.385 809.43L643.603 807.642L643.554 807.593L643.521 807.532L641.342 803.629L641.276 803.512L641.278 803.379L641.428 792.018L637.465 791.967L636.965 791.961L636.971 791.46L637.001 789.296L634.292 789.261L629.648 795.764L629.592 795.841L629.512 795.893L623.259 799.923L623.249 799.93L623.238 799.936L618.742 802.54L618.622 802.609L618.485 802.607L613.802 802.547L609.429 802.938L608.248 806.251L608.178 806.447L607.99 806.535L600.008 810.303L599.867 810.369L599.713 810.344L593.326 809.296L585.055 809.423L579.67 812.2L579.572 812.251L579.462 812.255L566.312 812.807L566.194 812.812L566.087 812.764L563.963 811.811L558.082 811.731L548.932 820.904L548.793 821.044L548.596 821.051L543.674 821.224L537.495 822.345L537.4 822.362L537.306 822.343L528.582 820.568L511.513 829.939L511.398 830.002L511.266 830L494.905 829.783L494.705 829.781L494.562 829.64L483.553 818.844L473.37 809.286L463.976 821.026L461.216 828.214L462.384 833.041L473.981 847.386L473.982 847.387C474.26 847.732 474.42 848.173 474.412 848.627C474.412 848.627 474.412 848.628 474.412 848.629L474.321 855.62L558.55 884.912L578.384 885.173C578.384 885.173 578.384 885.173 578.385 885.173H578.385L578.378 885.673C578.961 885.679 579.486 886.02 579.718 886.544L641.516 821.633ZM641.516 821.633L641.534 821.834L641.748 824.252L641.781 824.624L642.148 824.698L646.935 825.656L646.907 827.906L640.942 828.051L640.694 828.057L640.549 828.258L637.262 832.813L637.17 832.941L637.168 833.099L637.08 839.878L637.08 839.895L637.081 839.912L637.472 847.046L635.238 851.5L635.213 851.549L635.2 851.603L634.453 854.597L632.546 856.407L632.412 856.534L632.393 856.717L631.838 861.918L628.1 867.821L628.097 867.827L626.325 870.711L626.253 870.828L626.251 870.966L626.205 874.423L618.253 884.108L618.149 884.234L618.14 884.396L617.825 889.823L611.579 899.072L611.551 899.114L611.531 899.16L607.957 907.799L603.653 915.462L603.585 915.583L603.589 915.723L604.109 931.935L598.799 936.062L598.699 936.14L598.648 936.256L595.097 944.379L590.653 949.777L584.212 954.009L584.014 954.139L583.99 954.375L582.596 967.7L580.006 969.715L580.004 969.717L572.739 975.432L572.599 975.543L572.56 975.718L571.54 980.38L566.676 984.545L547.697 996.864L547.484 997.002L547.47 997.255L547.152 1002.92L541.685 1010.7L535.717 1018.03L529.079 1021.29L528.933 1021.36L528.857 1021.5L525.636 1027.59L520.842 1029.63L516.646 1030.77L516.524 1030.81L516.433 1030.89L513.241 1033.93L504.617 1037.17L504.473 1037.22L504.384 1037.35L500.847 1042.38L500.841 1042.39L497.39 1047.54L493.803 1048.89L493.695 1048.93L493.616 1049.01L484.812 1058.34L484.807 1058.34L437.388 1110.11L424.554 1093.6L425.651 1010.75L453.543 978.99L467.344 977.335C467.345 977.335 467.345 977.334 467.346 977.334C467.742 977.289 468.103 977.128 468.396 976.886L468.4 976.883L484.878 963.056L510.24 963.394C510.809 963.402 511.359 963.166 511.743 962.751L511.744 962.749L579.831 888.437C579.832 888.437 579.832 888.436 579.832 888.436C580.362 887.865 580.491 887.042 580.174 886.339L641.516 821.633Z" stroke="white"/>
<path d="M578.907 414.481H567.951L558.364 403.333C558.363 403.333 558.363 403.332 558.362 403.332C558.085 403.005 557.679 402.822 557.258 402.822H547.58L544.254 401.15L548.175 391.527L555.358 383.008L562.51 381.293L570.181 383.104L571.809 387.316L571.81 387.318C572.049 387.929 572.664 388.303 573.317 388.239L573.322 388.238L576.394 387.907L576.55 388.647L571.847 398.338L571.752 398.533L571.829 398.735L573.74 403.738L573.747 403.758L573.756 403.777L578.907 414.481Z" stroke="white"/>
<path d="M461.042 775.332L450.184 784.107L445.246 777.063L461.042 775.332ZM461.042 775.332L457.605 774.566L457.378 774.516L457.27 774.309L454.744 769.453L448.599 769.373L448.179 769.367L448.112 768.952L446.54 759.195L438.238 752.53L432.214 752.448L431.873 752.443L431.753 752.123L429.878 747.126L417.727 735.915L417.721 735.909L413.315 731.981L413.261 731.933L413.223 731.872L410.905 728.143L398.254 725.116L398.009 725.058L397.91 724.825L393.719 714.92L387.091 715.264L386.97 724.48L386.949 726.099L386.054 724.75L380.22 715.957L380.135 715.829L380.137 715.674L380.252 707.105L376.444 700.88L376.412 700.829L376.394 700.772L365.3 666.294L358.038 653.198L354.96 667.776C354.767 668.7 353.931 669.346 352.988 669.334L352.988 669.334L346.656 669.249L336.166 676.034C336.165 676.034 336.165 676.035 336.164 676.035C335.854 676.238 335.496 676.345 335.132 676.357L335.13 676.357L325.867 676.628L328.735 702.659L328.735 702.659C328.767 702.955 328.731 703.254 328.624 703.535C328.624 703.536 328.623 703.537 328.623 703.538L319.999 726.83L319.759 744.779L331.08 741.258L331.083 741.257C331.41 741.158 331.755 741.142 332.084 741.206L332.092 741.207L332.092 741.207L342.187 743.323L347.572 733.694L347.573 733.693C347.929 733.058 348.611 732.673 349.337 732.684C349.338 732.684 349.338 732.684 349.339 732.684M461.042 775.332L349.331 733.184L349.339 732.684M349.339 732.684L358.924 732.808M349.339 732.684L358.924 732.808M358.924 732.808C358.925 732.808 358.925 732.808 358.925 732.808M358.924 732.808L358.925 732.808M358.925 732.808C360.007 732.82 360.894 733.689 360.886 734.771L372.78 734.93C372.78 734.93 372.781 734.93 372.781 734.93C373.157 734.934 373.524 735.047 373.834 735.242L373.837 735.244L421.26 765.501L444.466 776.408L444.47 776.409C444.774 776.555 445.048 776.778 445.246 777.062L358.925 732.808Z" stroke="white"/>
<path d="M291.202 349.696L292.912 342.628L292.921 342.601L292.927 342.572L295.054 332.301L297.359 325.853H301.963L305.081 329.252V344.187L304.602 345.645L297.555 349.696H291.202Z" stroke="white"/>
<path d="M284 352.628L284.001 352.625L286.375 345.953C286.463 345.719 286.485 345.469 286.444 345.226C286.444 345.225 286.444 345.224 286.444 345.224L285.432 338.943L290.589 330.149L290.633 330.075L290.649 329.991L292.881 318.44L306.81 315.738L306.81 315.738L306.814 315.737C307.373 315.623 307.82 315.199 307.95 314.639C307.95 314.639 307.95 314.639 307.95 314.639L308.597 311.86L309.191 314.728L305.806 316.704C305.806 316.704 305.806 316.704 305.806 316.704C305.358 316.964 305.08 317.438 305.08 317.959V324.953L303.671 323.419C303.671 323.419 303.67 323.418 303.67 323.418C303.393 323.115 303.003 322.945 302.598 322.945H296.333C295.715 322.945 295.173 323.333 294.964 323.907L294.963 323.91L292.28 331.415C292.28 331.415 292.28 331.415 292.28 331.415C292.256 331.482 292.239 331.548 292.227 331.598L292.227 331.598L292.225 331.609L290.083 341.958L287.943 350.81C287.943 350.81 287.943 350.81 287.943 350.811C287.837 351.244 287.938 351.702 288.213 352.051C288.487 352.403 288.911 352.607 289.358 352.607H297.95C298.2 352.607 298.451 352.544 298.678 352.409L303.244 349.786L295.852 372.212L295.846 372.23L295.845 372.235L295.84 372.249C295.839 372.253 295.837 372.259 295.835 372.266C295.834 372.269 295.833 372.273 295.832 372.276L290.629 390.551L278.241 352.573L282.281 353.544C282.401 353.577 282.52 353.59 282.631 353.59C283.235 353.59 283.789 353.209 284 352.628Z" stroke="white"/>
<path d="M307.493 304.257C307.467 304.295 307.443 304.335 307.421 304.375H307.362L307.272 304.761L305.338 313.063L293.581 315.346L296.834 303.652L304.186 292.993L304.214 292.953L304.234 292.908L310.916 277.418L310.945 277.351L310.953 277.28L311.186 275.35L320.089 273.761L322.509 276.25L326.208 284.261L316.396 291.778C316.395 291.778 316.395 291.778 316.395 291.778C316.277 291.868 316.178 291.973 316.095 292.086L316.095 292.086L316.091 292.092L307.498 304.249L307.498 304.249L307.493 304.257Z" fill="white" fill-opacity="0.25" stroke="white"/>
<path d="M280.71 346.962L280.772 346.909L280.813 346.838L283.127 342.888L283.52 345.323L281.698 350.416L277.82 349.484L280.71 346.962Z" stroke="white"/>
</svg>
