<svg width="30" height="30" viewBox="0 0 30 30" fill="none" xmlns="http://www.w3.org/2000/svg">
<path fill-rule="evenodd" clip-rule="evenodd" d="M22.4468 27.1708C22.4468 26.9573 22.6064 26.7972 22.8191 26.7972C23.0319 26.7972 23.1915 26.9573 23.1915 27.1708V29.6263C23.1915 29.8399 23.0319 30 22.8191 30H22.766H15H14.9468H14.8936H2.23404C1.59574 30 1.01064 29.7331 0.585106 29.306C0.265957 28.9324 0 28.3452 0 27.7046V16.8683V2.34875C0 1.6548 0.265957 1.06762 0.691489 0.69395C1.11702 0.266904 1.70213 0 2.28723 0H14.9468H15H15.0532H27.7128C28.3511 0 28.9362 0.266904 29.3617 0.69395C29.7872 1.121 30 1.70819 30 2.29537V10.3025V10.3559V10.4093V18.363C30 19.0036 29.734 19.5907 29.3085 20.0178C28.9362 20.4448 28.3511 20.7117 27.7128 20.7117H23.1915V22.7936C23.1915 23.0071 23.0319 23.1673 22.8191 23.1673C22.6064 23.1673 22.4468 23.0071 22.4468 22.7936V20.2847V18.8968C22.4468 18.6833 22.6064 18.5231 22.8191 18.5231C23.0319 18.5231 23.1915 18.6833 23.1915 18.8968V19.9644H27.7128C28.1383 19.9644 28.5106 19.8043 28.7766 19.5374C29.0957 19.1637 29.2553 18.79 29.2553 18.363V10.7295H23.1915V15.2135C23.1915 15.427 23.0319 15.5872 22.8191 15.5872C22.6064 15.5872 22.4468 15.4804 22.4468 15.2669V10.7829H20.6915C20.4787 10.7829 20.3191 10.6228 20.3191 10.4093C20.3191 10.1957 20.4787 10.0356 20.6915 10.0356H29.2553V2.34875C29.2553 1.92171 29.0957 1.54804 28.8298 1.28114C28.5638 1.01423 28.1915 0.800712 27.766 0.800712H15.4255V10.0356H17.0745C17.2872 10.0356 17.4468 10.1957 17.4468 10.4093C17.4468 10.6228 17.2872 10.7829 17.0745 10.7829H15.3723V11.8505C15.3723 12.0641 15.2128 12.2242 15 12.2242C14.7872 12.2242 14.6277 12.0641 14.6277 11.8505V10.3559V0.747331H2.28723C1.8617 0.747331 1.48936 0.907473 1.2234 1.17438C0.957447 1.44128 0.797872 1.81495 0.797872 2.24199V16.3879H14.6809V15.3203C14.6809 15.1068 14.8404 14.9466 15.0532 14.9466C15.266 14.9466 15.4255 15.1068 15.4255 15.3203V16.7616V18.2028C15.4255 18.4164 15.266 18.5765 15.0532 18.5765C14.8404 18.5765 14.6809 18.4164 14.6809 18.2028V17.1352H0.744681V27.5979C0.744681 28.0249 0.904255 28.3986 1.2234 28.6655C1.48936 28.9324 1.8617 29.0925 2.28723 29.0925H14.6277V21.8861C14.6277 21.6726 14.7872 21.5125 15 21.5125C15.2128 21.5125 15.3723 21.6726 15.3723 21.8861V29.2527H22.4468V27.1708Z" fill="white"/>
</svg>
