<svg width="12" height="21" viewBox="0 0 12 21" fill="none" xmlns="http://www.w3.org/2000/svg">
<path d="M0.23931 11.0763L9.95243 20.7625C10.2707 21.0797 10.7859 21.0792 11.1036 20.7609C11.4211 20.4426 11.4203 19.9271 11.102 19.6097L1.967 10.5L11.1023 1.39026C11.4205 1.0728 11.4214 0.557608 11.1039 0.239326C10.9447 0.0797768 10.736 5.29311e-08 10.5274 7.11715e-08C10.3193 8.93653e-08 10.1114 0.0792428 9.95247 0.237686L0.23931 9.9237C0.0860357 10.0762 2.48124e-05 10.2837 2.48313e-05 10.5C2.48502e-05 10.7162 0.0862818 10.9235 0.23931 11.0763Z" fill="white"/>
</svg>
