<svg width="33" height="22" viewBox="0 0 33 22" fill="none" xmlns="http://www.w3.org/2000/svg">
<path fill-rule="evenodd" clip-rule="evenodd" d="M9.48503 17.0512L11.2635 14.0624C11.1647 14.0134 11.0165 14.0134 10.9177 13.9644L10.5225 13.7684C10.4237 13.7194 10.2754 13.7194 10.1766 13.7684C10.0778 13.8174 9.97904 13.8664 9.92964 13.9644L9.68264 14.2584L8.44761 16.0713C8.44761 16.1203 8.44761 16.2183 8.44761 16.3163C8.44761 16.4143 8.49701 16.4633 8.54641 16.5122C8.59581 16.5612 8.64521 16.6102 8.69461 16.6592L9.48503 17.0512ZM27.4177 0H32.6542C32.8518 0 33 0.146993 33 0.342984V14.5523C33 14.7483 32.8518 14.8953 32.6542 14.8953H27.4177C27.2201 14.8953 27.0719 14.7483 27.0719 14.5523V13.9154L25.4416 14.9933C25.491 15.0913 25.5404 15.2383 25.5898 15.3853C25.6392 15.6303 25.5898 15.8263 25.491 16.0713L25.3428 16.3163C25.0464 17.0512 24.7006 17.6882 24.256 18.2272C23.8114 18.8151 23.268 19.3051 22.6751 19.7951L20.1557 21.755C19.9581 21.902 19.7111 22 19.4641 22C19.2171 22 18.9701 21.951 18.7725 21.804L16.4012 20.4811C16.3518 20.5791 16.253 20.6771 16.1542 20.7751C16.006 20.8731 15.8578 20.971 15.7096 20.971C15.512 21.02 15.3638 21.069 15.2156 21.02C15.0674 21.02 14.9192 20.9221 14.771 20.8731L8.3982 17.2472C8.2006 17.1492 8.1018 17.0022 8.00299 16.9042C7.90419 16.7572 7.80539 16.6102 7.75599 16.4143C7.70659 16.2183 7.70659 16.0713 7.75599 15.9243C7.75599 15.8753 7.80539 15.7773 7.80539 15.7283L5.92814 14.0624V14.5523C5.92814 14.7483 5.77994 14.8953 5.58234 14.8953H0.345808C0.148204 14.8953 0 14.7483 0 14.5523V0.342984C0 0.146993 0.148204 0 0.345808 0H5.58234C5.77994 0 5.92814 0.146993 5.92814 0.342984V0.636971L8.54641 1.46993C8.89222 1.56793 9.13922 1.76392 9.28743 2.05791C9.43563 2.35189 9.48503 2.69488 9.38623 2.98886V3.03786L12.4491 3.28285H12.4985L18.476 3.96882C18.9701 3.82183 19.4641 3.67483 20.0075 3.57684L23.762 2.74388C23.7126 2.44989 23.762 2.2049 23.8608 1.95991C24.009 1.66592 24.256 1.46993 24.6018 1.37194L27.0225 0.587973V0.342984C27.0225 0.146993 27.2201 0 27.4177 0ZM24.9476 14.4543L24.997 14.4053L26.8743 13.1804C26.9237 13.1804 26.9237 13.1314 26.9731 13.1314L23.9596 3.47884L20.1063 4.3118C19.6123 4.4588 19.0689 4.55679 18.5749 4.70379C18.4266 4.75278 18.3278 4.80178 18.1796 4.85078C17.5868 5.04677 16.9446 5.24276 16.3024 5.53675L11.7575 7.39866L11.9551 7.79065C12.1527 8.18263 12.4491 8.47661 12.7949 8.62361C13.1407 8.8196 13.5853 8.8686 13.9805 8.7216L18.3772 7.54566C18.5254 7.49666 18.6737 7.54566 18.7231 7.64365L24.9476 14.4543ZM11.9551 14.3563C12.0539 14.4053 12.1527 14.4053 12.2021 14.4543C12.4491 14.5523 12.6467 14.6503 12.8443 14.7483C13.0419 14.8463 13.2395 14.9933 13.4371 15.1403L11.5599 18.2272L10.1272 17.3942L11.9551 14.3563ZM12.1527 18.5702L13.6347 19.4521L15.3638 16.6102L14.0299 15.5813L12.1527 18.5702ZM14.2769 19.7951L15.0674 20.2851C15.1662 20.2851 15.2156 20.3341 15.3144 20.3341C15.3638 20.3341 15.4626 20.3341 15.512 20.3341C15.5614 20.3341 15.6602 20.2851 15.7096 20.2361C15.759 20.1871 15.8084 20.1381 15.8578 20.0891L16.8458 18.3252C16.8952 18.2272 16.9446 18.0802 16.8952 17.9822C16.8952 17.8842 16.7964 17.7372 16.6976 17.6882L15.9566 17.0512L14.2769 19.7951ZM6.12575 13.2784L8.2006 15.1403L9.28743 13.6214C9.43563 13.3764 9.68263 13.2294 9.92964 13.1314C10.1766 13.0334 10.4731 13.0334 10.7201 13.1804L11.9551 13.6214C12.4491 13.7684 12.8443 13.9154 13.1901 14.1604C13.5359 14.3074 13.8323 14.5033 14.1287 14.7483L14.1781 14.7973C14.2275 14.7973 14.2769 14.8463 14.3263 14.8953L17.1422 17.1002C17.2904 17.1982 17.3892 17.2962 17.4386 17.4432L21.1931 20.0401L22.1811 19.2561C22.3293 19.1581 22.4281 19.0601 22.5269 18.9621L17.241 14.8953C17.0928 14.7973 17.0434 14.5523 17.1916 14.4053C17.2904 14.2584 17.488 14.2094 17.6362 14.3563L23.0704 18.4722C23.268 18.2762 23.4656 18.0312 23.6632 17.8352C23.8114 17.6392 23.9596 17.4432 24.1078 17.1982L19.3159 12.9844C19.1677 12.8374 19.1183 12.6414 19.2665 12.4944C19.4147 12.3474 19.6123 12.3474 19.7605 12.4454L24.4536 16.5612C24.5524 16.4143 24.6018 16.2183 24.7006 16.0223L24.7994 15.7773C24.8488 15.6793 24.8488 15.5813 24.8488 15.4833C24.8488 15.3853 24.7994 15.2873 24.7006 15.2383L18.3772 8.28062L14.1781 9.40757C13.5853 9.55457 12.9925 9.50557 12.4985 9.26058C12.0045 9.01559 11.5599 8.62361 11.3129 8.08463L10.9177 7.34967V7.30067C10.8683 7.10468 10.9177 6.90869 11.1153 6.85969L16.0554 4.85078C16.3024 4.75278 16.5988 4.65479 16.8458 4.55679L12.3503 4.01782L9.13922 3.77283L6.12575 13.2784ZM17.5868 18.3742C17.5374 18.4722 17.488 18.5702 17.4386 18.6682L16.7964 19.8441L19.1183 21.216C19.2171 21.265 19.3159 21.314 19.4147 21.314C19.5135 21.314 19.6123 21.265 19.7111 21.216L20.6497 20.5301L17.5868 18.3742ZM5.92814 11.4165L8.64521 2.79287C8.69461 2.64588 8.69461 2.49889 8.59581 2.40089C8.59581 2.2539 8.49701 2.1559 8.3488 2.1069L5.92814 1.37194V11.4165ZM5.23653 0.685969H0.691617V14.2094H5.23653V13.7194V0.88196V0.685969ZM27.0225 10.8775V1.37194L24.7994 2.05791C24.6512 2.1069 24.5524 2.2049 24.503 2.35189C24.4536 2.44989 24.4042 2.59688 24.4536 2.74388L27.0225 10.8775ZM27.7635 13.1804V14.2094H32.3084V0.685969H27.7635V0.88196V13.1804Z" fill="white"/>
</svg>
