<svg width="29" height="22" viewBox="0 0 29 22" fill="none" xmlns="http://www.w3.org/2000/svg">
<path d="M5.88043 10.9644C6.2071 10.9177 6.65043 10.8944 7.21043 10.8944C8.98376 10.8944 10.3138 11.4077 11.2004 12.4344C12.1338 13.4144 12.6004 14.651 12.6004 16.1444C12.6004 17.731 12.0638 19.061 10.9904 20.1344C9.96376 21.2077 8.54043 21.7444 6.72043 21.7444C4.85376 21.7444 3.36043 21.231 2.24043 20.2044C1.12043 19.131 0.56043 17.591 0.56043 15.5844C0.56043 12.8777 1.3771 10.1477 3.01043 7.39437C4.64376 4.59437 6.65043 2.26104 9.03043 0.394374L10.4304 1.86437C7.3971 5.08437 5.88043 8.11771 5.88043 10.9644ZM22.2604 10.9644C22.5871 10.9177 23.0304 10.8944 23.5904 10.8944C25.3638 10.8944 26.6938 11.4077 27.5804 12.4344C28.5138 13.4144 28.9804 14.651 28.9804 16.1444C28.9804 17.731 28.4438 19.061 27.3704 20.1344C26.3438 21.2077 24.9204 21.7444 23.1004 21.7444C21.2338 21.7444 19.7404 21.231 18.6204 20.2044C17.5004 19.131 16.9404 17.591 16.9404 15.5844C16.9404 12.8777 17.7571 10.1477 19.3904 7.39437C21.0238 4.59437 23.0304 2.26104 25.4104 0.394374L26.8104 1.86437C23.7771 5.08437 22.2604 8.11771 22.2604 10.9644Z" fill="white"/>
</svg>
