<svg width="23" height="31" viewBox="0 0 23 31" fill="none" xmlns="http://www.w3.org/2000/svg">
<path fill-rule="evenodd" clip-rule="evenodd" d="M1.87311 0.718841H6.83902V0.314493C6.83902 0.134783 6.9697 0 7.14394 0H15.8125C15.9867 0 16.1174 0.134783 16.1174 0.314493V0.718841H21.0833C21.6061 0.718841 22.0852 0.943478 22.4337 1.3029C22.7822 1.66232 23 2.15652 23 2.69565V29.113C23 29.6522 22.7822 30.1464 22.4337 30.5058C22.0852 30.7754 21.6061 31 21.0833 31H1.87311C1.35038 31 0.871212 30.7754 0.522727 30.4159C0.217803 30.0565 0 29.5623 0 29.0681V2.65072C0 2.11159 0.217803 1.61739 0.566288 1.25797C0.914773 0.943478 1.35038 0.718841 1.87311 0.718841ZM5.88068 19.7232H4.87879C4.70455 19.7232 4.57386 19.858 4.57386 20.0377C4.57386 20.2174 4.70455 20.3522 4.87879 20.3522H5.88068C6.05492 20.3522 6.18561 20.2174 6.18561 20.0377C6.18561 19.858 6.05492 19.7232 5.88068 19.7232ZM5.88068 16.0391H4.87879C4.70455 16.0391 4.57386 16.1739 4.57386 16.3536C4.57386 16.5333 4.70455 16.6681 4.87879 16.6681H5.88068C6.05492 16.6681 6.18561 16.5333 6.18561 16.3536C6.18561 16.1739 6.05492 16.0391 5.88068 16.0391ZM5.88068 12.5348H4.87879C4.70455 12.5348 4.57386 12.6696 4.57386 12.8493C4.57386 13.029 4.70455 13.1638 4.87879 13.1638H5.88068C6.05492 13.1638 6.18561 13.029 6.18561 12.8493C6.18561 12.6696 6.05492 12.5348 5.88068 12.5348ZM5.88068 9.03043H4.87879C4.70455 9.03043 4.57386 9.16522 4.57386 9.34493C4.57386 9.52464 4.70455 9.65942 4.87879 9.65942H5.88068C6.05492 9.65942 6.18561 9.52464 6.18561 9.34493C6.18561 9.16522 6.05492 9.03043 5.88068 9.03043ZM17.8598 9.03043H8.01515C7.84091 9.03043 7.71023 9.16522 7.71023 9.34493C7.71023 9.52464 7.84091 9.65942 8.01515 9.65942H17.8598C18.0341 9.65942 18.1648 9.52464 18.1648 9.34493C18.1648 9.16522 18.0341 9.03043 17.8598 9.03043ZM17.8598 12.5348H8.01515C7.84091 12.5348 7.71023 12.6696 7.71023 12.8493C7.71023 13.029 7.84091 13.1638 8.01515 13.1638H17.8598C18.0341 13.1638 18.1648 13.029 18.1648 12.8493C18.1648 12.6696 18.0341 12.5348 17.8598 12.5348ZM15.5947 19.7232H8.01515C7.84091 19.7232 7.71023 19.858 7.71023 20.0377C7.71023 20.2174 7.84091 20.3522 8.01515 20.3522H15.5947C15.7689 20.3522 15.8996 20.2174 15.8996 20.0377C15.9432 19.858 15.7689 19.7232 15.5947 19.7232ZM17.8598 16.0391H8.01515C7.84091 16.0391 7.71023 16.1739 7.71023 16.3536C7.71023 16.5333 7.84091 16.6681 8.01515 16.6681H17.8598C18.0341 16.6681 18.1648 16.5333 18.1648 16.3536C18.1648 16.1739 18.0341 16.0391 17.8598 16.0391ZM7.44886 1.03333V3.18985V4.31304H15.5076V3.18985V1.03333V0.628985H7.44886V1.03333ZM2.6572 2.87536H6.83902V1.34783H1.87311C1.52462 1.34783 1.2197 1.48261 1.00189 1.70725C0.784091 1.93188 0.653409 2.24638 0.653409 2.6058V29.0232C0.653409 29.3826 0.784091 29.6971 1.00189 29.9217C1.2197 30.1464 1.52462 30.2812 1.87311 30.2812H21.0833C21.4318 30.2812 21.7367 30.1464 21.9545 29.9217C22.1723 29.6971 22.303 29.3826 22.303 29.0232V2.65072C22.303 2.2913 22.1723 1.97681 21.9545 1.75217C21.7367 1.48261 21.4318 1.34783 21.0833 1.34783H16.161V2.83043H20.3428C20.517 2.83043 20.6477 2.96522 20.6477 3.14493V28.4841C20.6477 28.6638 20.517 28.7985 20.3428 28.7985H2.6572C2.48295 28.7985 2.35227 28.6638 2.35227 28.4841V3.18985C2.35227 3.01014 2.48295 2.87536 2.6572 2.87536ZM6.83902 3.50435H2.96212V28.1696H19.9943V3.50435H16.161V4.58261C16.161 4.76232 16.0303 4.8971 15.8561 4.8971H7.14394C6.9697 4.8971 6.83902 4.76232 6.83902 4.58261V3.50435Z" fill="white"/>
</svg>
