<svg width="15" height="14" viewBox="0 0 15 14" fill="none" xmlns="http://www.w3.org/2000/svg">
<path d="M3.22589 4.40869H0.175781V13.5682H3.22589V4.40869Z" fill="white"/>
<path d="M1.71913 0C1.20776 0 0.793412 0.149534 0.475989 0.44831C0.158598 0.747152 0 1.12443 0 1.58051C0 2.03022 0.154033 2.4062 0.462133 2.70806C0.770135 3.00994 1.17688 3.16096 1.68213 3.16096H1.70062C2.21827 3.16096 2.63579 3.01007 2.95309 2.70806C3.27038 2.4062 3.42593 2.03035 3.41982 1.58051C3.41366 1.12447 3.25643 0.747152 2.94842 0.44831C2.64045 0.149404 2.23054 0 1.71913 0Z" fill="white"/>
<path d="M13.2342 5.24545C12.5935 4.54605 11.7461 4.19629 10.6925 4.19629C10.3043 4.19629 9.95141 4.24404 9.63402 4.33961C9.31672 4.43511 9.04873 4.5691 8.82992 4.74166C8.61124 4.91421 8.43707 5.07439 8.30777 5.22221C8.18481 5.36262 8.06458 5.52617 7.94726 5.71118V4.40873H4.90625L4.91557 4.85244C4.92182 5.1483 4.9249 6.0602 4.9249 7.58827C4.9249 9.11647 4.91875 11.1098 4.90638 13.5684H7.94726V8.45702C7.94726 8.14283 7.98096 7.89333 8.04888 7.70831C8.17837 7.3939 8.37381 7.13067 8.63584 6.91817C8.89784 6.70541 9.22277 6.59913 9.61109 6.59913C10.1409 6.59913 10.5307 6.78243 10.7803 7.14906C11.0298 7.51566 11.1546 8.0225 11.1546 8.66952V13.5681H14.1955V8.31852C14.1953 6.96893 13.8751 5.94463 13.2342 5.24545Z" fill="white"/>
</svg>
