<svg width="24" height="31" viewBox="0 0 24 31" fill="none" xmlns="http://www.w3.org/2000/svg">
<g clip-path="url(#clip0)">
<path fill-rule="evenodd" clip-rule="evenodd" d="M11.7273 30.9066C10.8182 29.7395 9.72727 28.5256 8.63636 27.3117C6.31818 24.6506 3.86364 21.8961 2.18182 19.4217C1.45455 18.3479 0.909091 17.2274 0.545455 16.0136C0.181818 14.8464 0 13.5858 0 12.3253C0 8.91717 1.36364 5.83584 3.5 3.59488C5.68182 1.4006 8.68182 0 12 0C15.3182 0 18.3182 1.4006 20.5 3.59488C22.6818 5.83584 24 8.91717 24 12.3253C24 13.5858 23.8182 14.8464 23.4545 16.0602C23.0909 17.2741 22.5455 18.3946 21.8182 19.4217C20.1364 21.8961 17.6818 24.6506 15.3636 27.3117C14.2727 28.5256 13.1818 29.7395 12.2273 30.9066C12.1364 31.0467 11.9091 31.0467 11.7273 30.9066C11.7727 30.9066 11.7727 30.9066 11.7273 30.9066ZM12 6.86295C10.5455 6.86295 9.18182 7.46988 8.22727 8.4503C7.27273 9.43072 6.68182 10.8313 6.68182 12.3253C6.68182 13.8193 7.27273 15.2199 8.22727 16.2003C9.18182 17.1807 10.5 17.7876 12 17.7876C13.4545 17.7876 14.8182 17.1807 15.7727 16.2003C16.7273 15.2199 17.3182 13.866 17.3182 12.3253C17.3182 10.8313 16.7273 9.43072 15.7727 8.4503C14.8182 7.46988 13.4545 6.86295 12 6.86295ZM7.77273 7.98343C6.68182 9.10392 6.04545 10.6446 6.04545 12.3253C6.04545 14.006 6.72727 15.5467 7.77273 16.6672C8.86364 17.7876 10.3636 18.4413 12 18.4413C13.6364 18.4413 15.1364 17.741 16.2273 16.6672C17.3182 15.5467 17.9545 14.006 17.9545 12.3253C17.9545 10.6446 17.2727 9.10392 16.2273 7.98343C15.1364 6.86295 13.6364 6.20934 12 6.20934C10.3636 6.20934 8.86364 6.86295 7.77273 7.98343ZM9.13636 26.8449C10.1364 28.012 11.1364 29.1325 12 30.1596C12.8636 29.1325 13.8636 28.012 14.8636 26.8449C17.1818 24.2304 19.5909 21.4759 21.2727 19.0482C21.9545 18.0678 22.4545 16.994 22.8182 15.8735C23.1818 14.7063 23.3636 13.5392 23.3636 12.3253C23.3636 9.10392 22.0909 6.20934 20.0455 4.10843C17.9545 1.96084 15.1364 0.653614 12 0.653614C8.86364 0.653614 6.04545 1.96084 4 4.06175C1.90909 6.20934 0.636364 9.10392 0.636364 12.3253C0.636364 13.5392 0.818182 14.7063 1.13636 15.8268C1.54545 16.9473 2.04545 18.0211 2.72727 19.0482C4.40909 21.4759 6.81818 24.2304 9.13636 26.8449Z" fill="white"/>
</g>
<defs>
<clipPath id="clip0">
<rect width="24" height="31" fill="white"/>
</clipPath>
</defs>
</svg>
