<svg width="14" height="14" viewBox="0 0 14 14" fill="none" xmlns="http://www.w3.org/2000/svg">
<path d="M6.1653 0C2.76585 0 0 2.76585 0 6.1653C0 9.56495 2.76585 12.3306 6.1653 12.3306C9.56495 12.3306 12.3306 9.56495 12.3306 6.1653C12.3306 2.76585 9.56495 0 6.1653 0ZM6.1653 11.1924C3.39339 11.1924 1.13821 8.93725 1.13821 6.16533C1.13821 3.39341 3.39339 1.13821 6.1653 1.13821C8.93722 1.13821 11.1924 3.39339 11.1924 6.1653C11.1924 8.93722 8.93722 11.1924 6.1653 11.1924Z" fill="white"/>
<path d="M13.8329 13.0287L10.57 9.76587C10.3477 9.54354 9.98759 9.54354 9.76526 9.76587C9.54293 9.98801 9.54293 10.3485 9.76526 10.5706L13.0281 13.8335C13.1393 13.9446 13.2848 14.0002 13.4305 14.0002C13.576 14.0002 13.7217 13.9446 13.8329 13.8335C14.0552 13.6113 14.0552 13.2509 13.8329 13.0287Z" fill="white"/>
</svg>
