<svg width="19" height="18" viewBox="0 0 19 18" fill="none" xmlns="http://www.w3.org/2000/svg">
<path d="M18.2644 15.1761L14.3506 11.4926C15.0844 10.4182 15.4921 9.19035 15.4921 7.80902C15.4921 3.97198 12.2306 0.902344 8.15377 0.902344C4.07692 0.902344 0.81543 3.97198 0.81543 7.80902C0.81543 11.6461 4.07692 14.7157 8.15377 14.7157C9.62144 14.7157 10.926 14.332 12.0676 13.6413L15.9813 17.3249C16.3075 17.6318 16.7152 17.7853 17.1229 17.7853C18.0198 17.7853 18.7536 17.0947 18.7536 16.2505C18.7536 15.7901 18.5905 15.4064 18.2644 15.1761ZM4.07692 7.80902C4.07692 5.66028 5.87073 3.97198 8.15377 3.97198C10.4368 3.97198 12.2306 5.66028 12.2306 7.80902C12.2306 9.95776 10.4368 11.6461 8.15377 11.6461C5.87073 11.6461 4.07692 9.95776 4.07692 7.80902Z" fill="#035494"/>
</svg>
