<svg width="40" height="54" viewBox="0 0 40 54" fill="none" xmlns="http://www.w3.org/2000/svg">
<path d="M19.5568 0C8.7731 0 0 8.7731 0 19.5566C0 32.9394 17.5014 52.586 18.2465 53.4158C18.9464 54.1953 20.1684 54.194 20.867 53.4158C21.6121 52.586 39.1135 32.9394 39.1135 19.5566C39.1133 8.7731 30.3403 0 19.5568 0ZM19.5568 29.3961C14.1312 29.3961 9.71736 24.9822 9.71736 19.5566C9.71736 14.1311 14.1313 9.71726 19.5568 9.71726C24.9822 9.71726 29.396 14.1312 29.396 19.5568C29.396 24.9823 24.9822 29.3961 19.5568 29.3961Z" fill="white"/>
</svg>
