<svg width="17" height="17" viewBox="0 0 17 17" fill="none" xmlns="http://www.w3.org/2000/svg">
<path d="M8.73186 0C4.07259 0 1.59473 2.98576 1.59473 6.24141C1.59473 7.75129 2.43839 9.63412 3.78889 10.2313C3.99396 10.3237 4.10553 10.2844 4.15122 10.0942C4.19159 9.9497 4.36904 9.25373 4.45511 8.9254C4.48167 8.82021 4.46786 8.72883 4.38285 8.63001C3.93446 8.11149 3.5785 7.16688 3.5785 6.28072C3.5785 4.01006 5.38377 1.80527 8.4556 1.80527C11.112 1.80527 12.9704 3.53085 12.9704 5.99915C12.9704 8.78833 11.4945 10.7179 9.57659 10.7179C8.5151 10.7179 7.72457 9.88488 7.97533 8.85421C8.27815 7.62697 8.87212 6.30728 8.87212 5.42218C8.87212 4.62846 8.42372 3.9718 7.50781 3.9718C6.42719 3.9718 5.55059 5.04179 5.55059 6.47835C5.55059 7.39108 5.87361 8.00736 5.87361 8.00736C5.87361 8.00736 4.80468 12.3256 4.60599 13.132C4.27022 14.4974 4.65168 16.7086 4.68462 16.8988C4.7048 17.004 4.82275 17.0369 4.88862 16.9508C4.99382 16.8127 6.28588 14.9692 6.6482 13.6367C6.77996 13.1512 7.3208 11.1823 7.3208 11.1823C7.67675 11.8251 8.70423 12.3638 9.79866 12.3638C13.0543 12.3638 15.4068 9.50237 15.4068 5.95133C15.3951 2.54693 12.4816 0 8.73186 0Z" fill="white"/>
</svg>
