<svg width="31" height="31" viewBox="0 0 31 31" fill="none" xmlns="http://www.w3.org/2000/svg">
<path fill-rule="evenodd" clip-rule="evenodd" d="M21.9391 0H26.9729C27.4763 0 27.9378 0.209459 28.2733 0.544595C28.6089 0.87973 28.8187 1.34054 28.8187 1.84324V20.1081H29.2382C29.7415 20.1081 30.203 20.3176 30.5386 20.6527C30.7903 20.9459 31 21.4068 31 21.9095V26.9365C31 27.4392 30.7903 27.9 30.4547 28.2351C30.1191 28.5284 29.6576 28.7378 29.1962 28.7378H28.7767V29.1986C28.7767 29.7013 28.567 30.1622 28.2314 30.4973C27.8958 30.7905 27.4344 31 26.9729 31H21.9391C21.4357 31 20.9743 30.7905 20.6387 30.4554C20.3451 30.1203 20.1353 29.6595 20.1353 29.1986V28.7378H1.80379C1.30041 28.7378 0.838972 28.5284 0.503383 28.1932C0.209743 27.8581 0 27.3973 0 26.9365V21.9095C0 21.4068 0.209743 20.9459 0.545332 20.6108C0.88092 20.2757 1.30041 20.1081 1.80379 20.1081H3.31394H9.39648H15.479H20.0934V15.5V9.42568V3.35135V1.80135C20.0934 1.29865 20.3031 0.837838 20.6387 0.502703C20.9743 0.209459 21.4357 0 21.9391 0ZM20.7226 3.01622H23.0298C23.1976 3.01622 23.3234 3.14189 23.3234 3.30946C23.3234 3.47703 23.1976 3.6027 23.0298 3.6027H20.7226V9.04865H23.0298C23.1976 9.04865 23.3234 9.17432 23.3234 9.34189C23.3234 9.50946 23.1976 9.63513 23.0298 9.63513H20.7226V15.0811H23.0298C23.1976 15.0811 23.3234 15.2068 23.3234 15.3743C23.3234 15.5419 23.1976 15.6676 23.0298 15.6676H20.7226V20.1081H21.5616H27.6441H28.1475V1.80135C28.1475 1.46622 28.0217 1.17297 27.8119 0.963513C27.6022 0.754054 27.2666 0.586486 26.9729 0.586486H21.9391C21.6035 0.586486 21.3099 0.712162 21.1001 0.921622C20.8904 1.13108 20.7645 1.42432 20.7645 1.75946V3.01622H20.7226ZM27.9378 20.6946V22.9986C27.9378 23.1662 27.8119 23.2919 27.6441 23.2919C27.4763 23.2919 27.3505 23.1662 27.3505 22.9986V20.6946H21.8972V22.9986C21.8972 23.1662 21.7713 23.2919 21.6035 23.2919C21.4357 23.2919 21.2679 23.1662 21.2679 22.9986V20.6946H20.429H15.8146V22.9986C15.8146 23.1662 15.6888 23.2919 15.521 23.2919C15.3532 23.2919 15.2273 23.1662 15.2273 22.9986V20.6946H9.77402V22.9986C9.77402 23.1662 9.64817 23.2919 9.48038 23.2919C9.31258 23.2919 9.18674 23.1662 9.18674 22.9986V20.6946H3.73342V22.9986C3.73342 23.1662 3.60758 23.2919 3.43978 23.2919C3.27199 23.2919 3.14614 23.1662 3.14614 22.9986V20.6946H1.80379C1.4682 20.6946 1.17456 20.8203 0.964817 21.0297C0.755074 21.2392 0.629229 21.5324 0.629229 21.8676V26.8946C0.629229 27.2297 0.755074 27.523 0.964817 27.7324C1.17456 27.9419 1.4682 28.0676 1.80379 28.0676H20.429H28.4831H29.1962C29.5318 28.0676 29.8254 27.9419 30.0352 27.7324C30.2449 27.523 30.3708 27.2297 30.3708 26.8946V21.8676C30.3708 21.5324 30.2449 21.2392 30.0352 21.0297C29.8254 20.8203 29.5318 20.6946 29.1962 20.6946H28.4831H27.9378ZM21.9391 30.3716H26.9729C27.3085 30.3716 27.6022 30.2459 27.8119 30.0365C28.0217 29.827 28.1475 29.5338 28.1475 29.1986V28.7378H20.7226V29.1986C20.7226 29.5338 20.8484 29.827 21.0582 30.0365C21.3099 30.2459 21.6035 30.3716 21.9391 30.3716Z" fill="white"/>
</svg>
