<svg width="15" height="13" viewBox="0 0 15 13" fill="none" xmlns="http://www.w3.org/2000/svg">
<path d="M15 1.54383C14.4099 1.81468 13.8196 1.98384 13.2298 2.05178C13.896 1.62522 14.3466 1.0226 14.5814 0.243964C13.972 0.629832 13.3217 0.893824 12.6302 1.03608C12.021 0.345456 11.2724 0 10.3839 0C9.53371 0 8.80884 0.319878 8.20898 0.959777C7.60946 1.59964 7.30967 2.37315 7.30967 3.28042C7.30967 3.52414 7.335 3.77476 7.38581 4.03202C6.12942 3.96433 4.95084 3.62748 3.84987 3.02148C2.74896 2.41542 1.81464 1.60796 1.0469 0.599132C0.767707 1.10684 0.62806 1.65876 0.62806 2.25459C0.62806 2.81658 0.751772 3.33802 0.999362 3.81876C1.24679 4.29943 1.57998 4.68871 1.99879 4.98668C1.50378 4.96633 1.0406 4.82749 0.609192 4.57018V4.61081C0.609192 5.40307 0.842381 6.09864 1.30869 6.69806C1.77507 7.2974 2.36363 7.67466 3.07423 7.83047C2.8077 7.90486 2.53798 7.9421 2.26518 7.9421C2.0875 7.9421 1.89395 7.9252 1.68459 7.89159C1.88128 8.54824 2.24298 9.08804 2.76956 9.51143C3.29625 9.93462 3.89271 10.1528 4.55897 10.1666C3.44226 11.1009 2.17007 11.568 0.742404 11.568C0.469512 11.568 0.222121 11.5547 0 11.5275C1.4277 12.5092 3.00129 13 4.72085 13C5.81222 13 6.83699 12.8157 7.79481 12.4466C8.7531 12.0777 9.57155 11.5833 10.2505 10.9637C10.9293 10.3441 11.5148 9.6315 12.0065 8.82579C12.4982 8.02001 12.8645 7.1788 13.1059 6.30198C13.3469 5.42498 13.4675 4.54663 13.4675 3.66626C13.4675 3.47665 13.4643 3.33453 13.4579 3.23969C14.0609 2.77272 14.5748 2.20724 15 1.54383Z" fill="white"/>
</svg>
