<?xml version="1.0" standalone="no"?>
<!DOCTYPE svg PUBLIC "-//W3C//DTD SVG 20010904//EN"
 "http://www.w3.org/TR/2001/REC-SVG-20010904/DTD/svg10.dtd">
<svg version="1.0" xmlns="http://www.w3.org/2000/svg"
 width="130.000000pt" height="130.000000pt" viewBox="0 0 130.000000 130.000000"
 preserveAspectRatio="xMidYMid meet">
<metadata>
Created by potrace 1.11, written by Peter Selinger 2001-2013
</metadata>
<g transform="translate(0.000000,130.000000) scale(0.100000,-0.100000)"
fill="#000000" stroke="none">
<path d="M850 1205 c0 -2 24 -16 52 -30 105 -53 214 -168 262 -277 l24 -55
-79 1 -79 2 -45 56 c-81 104 -172 148 -317 154 -251 10 -422 -151 -433 -407
-12 -305 166 -498 447 -484 104 6 160 22 227 65 65 42 167 161 148 171 -7 3
-60 6 -119 5 -89 -1 -111 -4 -129 -20 -103 -88 -292 -43 -345 82 -8 20 -16 51
-17 67 l-2 30 380 1 c209 0 383 -1 387 -3 12 -6 -23 -129 -58 -201 -54 -110
-196 -249 -282 -277 -13 -4 -21 -9 -18 -13 4 -3 45 14 93 38 216 110 347 332
329 561 -19 239 -152 421 -378 518 -27 11 -48 18 -48 16z m-107 -339 c18 -7
46 -28 64 -46 37 -37 59 -89 40 -91 -56 -5 -380 -2 -384 4 -8 13 38 84 70 107
16 12 41 26 56 30 42 13 119 11 154 -4z"/>
<path d="M350 1163 c-101 -49 -214 -161 -258 -254 -152 -325 -30 -667 291
-813 81 -37 83 -32 5 13 -353 206 -412 683 -119 970 31 31 84 71 117 88 81 44
56 41 -36 -4z"/>
</g>
</svg>
